<svg viewBox="0 0 187 50" xmlns="http://www.w3.org/2000/svg"><path d="m47.22 27.81a20.25 20.25 0 1 1 -20.22-20.25 20.25 20.25 0 0 1 20.22 20.25" fill="#3c3245"/><path d="m27 45.85c-10.6 0-19.19-8-19.19-17.94s8.6-17.91 19.19-17.91 19.19 8 19.19 17.94-8.59 17.91-19.19 17.91m0-39.12c-12.5 0-22.65 9.48-22.65 21.18s10.15 21.18 22.65 21.18 22.65-9.48 22.65-21.18-10.13-21.18-22.65-21.18" fill="#bf953c"/><path d="m27 45.85c-10.6 0-19.19-8-19.19-17.94s8.6-17.91 19.19-17.91 19.19 8 19.19 17.94-8.59 17.91-19.19 17.91zm0-39.12c-12.5 0-22.65 9.48-22.65 21.18s10.15 21.18 22.65 21.18 22.65-9.48 22.65-21.18-10.13-21.18-22.65-21.18z" fill="none" stroke="#231f20" stroke-width=".88"/><path d="m26.93 6.2 20.88 32.56-41.81-.3zm0-6-26.93 41.88h54.09l-27.16-41.83z" fill="#231f20"/><path d="m13.25 44.4c-1.19-1.06 1.53-2.15 2.51-1.69a.78.78 0 0 0 -.46-.55h-4l-.67.1 1.68 2 .93.2z" fill="#231f20"/><path d="m40.72 44.4c1.19-1.06-1.53-2.15-2.51-1.69a.78.78 0 0 1 .46-.55h4l.67.1-1.68 2-.94.2z" fill="#231f20"/><path d="m19.41 8.11c1.09-.43 1.4 1.64.12 3a3.86 3.86 0 0 0 1.64-2l1.27-1.88-3 .85z" fill="#231f20"/><path d="m34.72 8.11c-1.09-.43-1.4 1.64-.12 3-.64.09-1.64-2-1.64-2l-1.28-1.85 3 .85z" fill="#231f20"/><path d="m27.34 26.32 16.05-9.74-16.8-4.76-15.49 4.76z" fill="#fff"/><path d="m27.34 26.32 16.05-9.74-16.8-4.76-15.49 4.76z" fill="none" stroke="#231f20" stroke-linejoin="bevel" stroke-width=".42"/><path d="m27.3 44.22 16.04-7.25v-20.34l-16.04 6.06z" fill="#fff"/><path d="m27.3 44.22 16.04-7.25v-20.34l-16.04 6.06z" fill="none" stroke="#231f20" stroke-width=".42"/><path d="m11.15 16.63 16.05 6.06v21.53l-16.05-7.25z" fill="#dcddde"/><path d="m11.15 16.63 16.05 6.06v21.53l-16.05-7.25z" fill="none" stroke="#231f20" stroke-width=".42"/><path d="m28.76 18.79-2.39-.67a1.8 1.8 0 0 1 -.19.21l2.24.63z" fill="#231f20"/><path d="m28.15 19.09-2.15-.61-.24.18 2 .57.35-.15" fill="#231f20"/><path d="m29.47 18.43-2.93-.83a.42.42 0 0 1 0 .13.74.74 0 0 1 -.07.2l2.55.72.44-.22" fill="#231f20"/><path d="m22.45 17.92-1.88-.53-.25.16 1.79.51.35-.13" fill="#231f20"/><path d="m27.51 19.35-1.95-.55-.25.16 1.84.52z" fill="#231f20"/><path d="m23.25 17.71-2.15-.61-.3.17 2 .56.48-.12" fill="#231f20"/><path d="m25.8 17.39-3.3-.93-.51.2 2.85.8 1-.08" fill="#231f20"/><path d="m24.3 17.53-2.6-.73-.34.17 2.34.66.61-.09" fill="#231f20"/><path d="m21.85 18.16-1.73-.49-.2.15 1.69.48.25-.14" fill="#231f20"/><path d="m30.3 18-6.81-1.92-.64.24 6.92 2z" fill="#231f20"/><path d="m31.25 17.55-6.57-1.85c-.31.12-.58.2-.84.28l6.75 1.91.66-.33" fill="#231f20"/><path d="m35 16.87-8.2-2.32a4.57 4.57 0 0 0 -.8.45l-.08.05 7.55 2.13.33-.06z" fill="#231f20"/><path d="m31.92 13.9a4.2 4.2 0 0 0 -.53-.12 9.86 9.86 0 0 0 -2 0 12.74 12.74 0 0 0 -2.35.66l8.31 2.35c1.66-.44 1.4-.82.67-1.27-.09-.24-.46-.41-.88-.53a9.31 9.31 0 0 0 -1.63-.26.71.71 0 0 0 -.39-.36 7.49 7.49 0 0 0 -.71-.28l-.53-.16" fill="#231f20"/><path d="m23.18 20.28-.37-.1c-.07 0-.08.08 0 .1h.39" fill="#231f20"/><path d="m33 17.24-7.31-2.06a5.86 5.86 0 0 1 -.73.39l6.63 1.87c.2 0 .56-.06 1.4-.2" fill="#231f20"/><path d="m26.16 19.76-1.53-.43-.25.12 1.42.4.37-.09" fill="#231f20"/><path d="m21.07 18.66-1.54-.43-.07.1 1.5.42.12-.08" fill="#231f20"/><path d="m20.51 19-1.18-.33a.63.63 0 0 0 0 .11l1 .29.14-.07" fill="#231f20"/><path d="m25.51 19.92-1.33-.38-.15.07 1.26.36h.22" fill="#231f20"/><path d="m20.16 19.18-.82-.23a.76.76 0 0 0 0 .13l.58.16.19-.06" fill="#231f20"/><path d="m25 20-1.16-.33-.16.07 1.08.31z" fill="#231f20"/><path d="m24.45 20.13-1-.28-.16.07.88.25h.25" fill="#231f20"/><path d="m23.86 20.22-.73-.22-.15.07.6.17h.29" fill="#231f20"/><path d="m20.8 18.84-1.41-.4v.1l1.32.37.13-.08" fill="#231f20"/><path d="m21.42 18.42-1.65-.42-.15.15 1.6.45.08-.06.12-.08" fill="#231f20"/><path d="m26.85 19.58-1.75-.49-.26.14 1.63.46.37-.1" fill="#231f20"/><g fill="#fff"><path d="m26.28 17.46h-.19l.31.09a.29.29 0 0 0 -.12-.06"/><path d="m26.28 17.46a1.2 1.2 0 0 0 -.28 0h.08.19a.29.29 0 0 1 .12.06.22.22 0 0 0 -.15-.1"/><path d="m29.56 18.32-3-.85.07.06 2.89.82h.06m-3.36-.95-3.43-1h-.07l3.29.93h.21"/><path d="m29.82 18.31h-.07l-6.92-2h-.07-.06l-.2.07h-.06.07l3.3.93h.11.08a1.17 1.17 0 0 1 .28 0 .22.22 0 0 1 .15.1h.11l2.93.83h.07l.27-.14m-3.2-.77-.07-.07 3 .85h-.06l-2.89-.82m-3.89-.86h.07l3.43 1h-.2l-3.29-.93"/><path d="m29 18.72-.1.06z"/><path d="m24.54 17.46-2.59-.73h-.06l2.54.72h.12"/><path d="m24.92 17.49h-.08l-2.84-.83h-.07-.06l-.18.08h-.05.08l2.6.73h.08.06.33.16m-3-.73h.06l2.59.73h-.12l-2.54-.72"/><path d="m28.85 18.68-2.32-.68 2.29.65h.06"/><path d="m29.11 18.67h-.08l-2.55-.72h-.09v.06l-.07.11h.08l2.39.67h.07.06l.11-.06.1-.05m-2.6-.6 2.32.66h-.06l-2.29-.65"/><path d="m21.22 17-.12.06.12-.07"/><path d="m28.24 19-2-.58 2 .57h.05"/><path d="m28.49 19h-.07l-2.24-.63h-.08l-.11.09h.08l2.13.6h.07.06l.17-.08m-2.33-.53 2 .58h-.05l-2-.57"/><path d="m23.44 17.63-2.12-.63h-.05l2.08.59h.09"/><path d="m23.76 17.64h-.08l-2.33-.64h-.08-.06l-.12.07h.07l2.15.61h.07.06l.26-.05h.12m-2.49-.58h.05l2.11.6h-.09l-2.08-.59"/><path d="m27.61 19.27-1.86-.52 1.84.52h.05"/><path d="m27.87 19.26h-.07l-2-.57h-.07-.05l-.12.08h.07l1.95.55h.07.06l.17-.07h.05m-2.14-.49 1.86.52h-.05l-1.84-.52"/><path d="m22.57 17.84-1.8-.51 1.78.5h.06"/><path d="m22.84 17.84h-.07l-2-.56h-.07-.05l-.14.08h.07l1.88.53h.07.06l.19-.06h.08m-2.11-.48 1.8.51h-.06l-1.78-.5"/><path d="m35.15 16.79-8.15-2.29h-.07l8.1 2.29h.09"/><path d="m35.46 16.79h-.08l-8.31-2.35h-.07-.07l-.19.08h-.05.07l8.24 2.35h.08.06l.26-.06h.1m-8.5-2.28h.07l8.12 2.29h-.09z"/><path d="m33.24 17.17-7.3-2.06 7.25 2h.1"/><path d="m33.58 17.18h-.08l-7.55-2.18h-.08-.06l-.14.09h.08l7.25 2.15h.08.06.29.13m-7.69-2 7.3 2.06h-.1l-7.25-2"/><path d="m31.36 17.45-6.42-1.81h-.07l6.41 1.81h.07"/><path d="m31.69 17.46h-.07l-6.62-1.89h-.07-.06l-.19.08h-.06.07l6.57 1.86h.07.06a.66.66 0 0 1 .18-.06h.13m-6.82-1.79h.07l6.42 1.81h-.07l-6.41-1.81"/><path d="m30.61 17.92v.01l-.17.08z"/><path d="m30.4 17.91-6.62-1.91h-.08l6.65 1.88h.06"/><path d="m30.67 17.9h-.08l-6.75-1.9h-.07-.06l-.22.07h-.07.07l6.81 1.93h.07.06l.17-.08h.06m-7-1.84h.08l6.63 1.87h-.06l-6.61-1.89"/><path d="m25.09 19.98-1.1-.31-.01.01 1.09.3z"/><path d="m25.34 20h-.06l-1.28-.39h-.06l-.19.09h.06l1.19.3h.11.15zm-1.34-.32 1.1.31z"/><path d="m20.83 18.77-1.34-.38-.01.02 1.34.37z"/><path d="m21 18.76h-.06l-1.5-.42h-.07v.07h.07l1.41.4h.06l.08-.05m-1.53-.35 1.34.38-1.33-.38"/><path d="m23.57 19.77-.1.05z"/><path d="m20.54 18.95-1.13-.32v.01l1.12.32z"/><path d="m20.74 18.94h-.06l-1.32-.37h-.07a.67.67 0 0 0 0 .07h.07l1.18.33h.06l.1.03m-1.33-.3 1.14.32-1.12-.32"/><path d="m24.56 20.08-.92-.26-.01.01.9.26z"/><path d="m24.82 20.09h-.06l-1.08-.31h-.06-.1-.05.06l1 .27h.06.09.12.09m-1.19-.26.92.26-.91-.26"/><path d="m23.22 19.93-.11.05z"/><path d="m23.99 20.18-.7-.2-.02.01.68.19z"/><path d="m24.26 20.19h-.06l-.88-.25h-.06-.11.06l.73.21h.06.18.1m-1-.2.7.2-.71-.15"/><path d="m20.22 19.11-.81-.22v.01l.79.22z"/><path d="m20.42 19.11h-.06l-1-.29h-.08v.06a.81.81 0 0 0 0 .08h.08l.82.23h.06.11m-1-.21.81.23-.79-.22"/><path d="m21.93 18.08-1.63-.46 1.62.46"/><path d="m22.17 18.07h-.07l-1.79-.51h-.07-.05l-.11.08h.07l1.73.49h.06.06l.14-.06m-1.9-.43 1.63.46-1.62-.46"/><path d="m27 19.5-1.71-.5 1.65.47h.05"/><path d="m27.22 19.5h-.07l-1.84-.5h-.07-.05l-.12.07h.07l1.75.49h.06.06l.18-.06h.07m-2-.45 1.74.45h-.05l-1.65-.47"/><path d="m26.28 19.7-1.47-.42-.03.02 1.45.41z"/><path d="m26.54 19.7h-.06l-1.63-.46h-.07-.05l-.12.06h.06l1.53.43h.13.17.08m-1.76-.4 1.46.41-1.45-.41"/><path d="m21.46 18.34-1.54-.43 1.53.43"/><path d="m21.67 18.32h-.06l-1.69-.48h-.07l-.09.07h.07l1.65.47h.07l.1-.07m-1.77-.4 1.54.43-1.53-.43"/><path d="m21.25 18.59-.07.06z"/><path d="m24.2 19.49-.04.02z"/><path d="m21.09 18.59-1.46-.41v.01l1.45.41z"/><path d="m21.28 18.58h-.06l-1.6-.45h-.06l-.05.06h.06l1.54.43h.06l.08-.06m-1.65-.39 1.46.41z"/><path d="m25.6 19.86-1.26-.35-.02.01 1.26.35z"/><path d="m25.85 19.87h-.06l-1.42-.4h-.06l-.12.05h.06l1.33.38h.06.15.08m-1.53-.35 1.26.36z"/><path d="m23.34 20.25-.38-.11-.02.01.36.1z"/><path d="m23.65 20.27h-.07l-.6-.17h-.06l-.09.05h.06l.37.1h.08.22.13m-.71-.12.38.11-.36-.1"/><path d="m19.77 19.24-.25-.07h.17"/><path d="m20 19.25h-.06l-.58-.16h-.09v.08.06h.06l.23.06a1.12 1.12 0 0 0 .27 0h.09m-.48-.06.25.07h-.17"/><path d="m19.78 23c-.07 0-.07.15-.15.11.09 0 .08-.12.15-.11a.08.08 0 0 1 0 0 .08.08 0 0 0 0 0m-.5 0a.05.05 0 0 0 0 0 .05.05 0 0 1 0 0m.77.58.09.06-.14-.04m.1.21h.06m1.38 1.11h.05zm-1.33-.42a.19.19 0 0 0 .07.07.19.19 0 0 1 -.07-.07m.12.09a.05.05 0 0 1 -.07 0 .05.05 0 0 0 .07 0m-.21-.1.07.06.06.05-.06-.05zm-.1 0 .05.12zm.03.14s0 0 0 0a0 0 0 0 0 0 0 0 0 0 0 1 0 0m-.05-.1a.24.24 0 0 0 0 .09.24.24 0 0 1 0-.09s0 .26 0 .28 0-.24 0-.28m.39.25a.14.14 0 0 1 .06.06.14.14 0 0 0 -.06-.06m-.24-.02v.06-.06s0 .06 0 .06 0 0 0-.06m-.08.09a.2.2 0 0 0 0 .07.2.2 0 0 1 0-.07m-.18-.06.08.06zm1.8 1s0 0 0 0m-1.82-1s0 0 0 0m.08.09h-.06m.07 0a1.09 1.09 0 0 1 0 .24 1.09 1.09 0 0 0 0-.24m.11.14s0 0 0 .1 0-.1 0-.1m-.15-.02a.54.54 0 0 0 0 .17.54.54 0 0 1 0-.17m-.09 0a.07.07 0 0 1 0 .07.07.07 0 0 0 0-.07m.48.28a.88.88 0 0 1 0 .22.88.88 0 0 0 0-.22m-.5-.24a.31.31 0 0 1 0 .13.79.79 0 0 0 0 .12 1 1 0 0 1 0-.12.31.31 0 0 0 0-.13m-.02.02a.51.51 0 0 0 0 .11.51.51 0 0 1 0-.11m0 0s0 0 0 .06 0-.05 0-.06m.29.2s0 .08.05.1 0-.07-.05-.1m-.08 0v.12s0-.06 0-.12m-.82-.26a.71.71 0 0 1 .13.12.61.61 0 0 0 .12.12.61.61 0 0 1 -.12-.12.71.71 0 0 0 -.13-.12m.56.45a.34.34 0 0 1 .08.19.34.34 0 0 0 -.08-.19m-.29.1a.66.66 0 0 0 0 .12.66.66 0 0 1 0-.12m.27.32c-.56-.24-1.06 0-1.18.74.12-.7.62-1 1.18-.74m.14.64a.12.12 0 0 1 -.09 0 .12.12 0 0 0 .09 0v.1a.12.12 0 0 1 .11 0 .12.12 0 0 0 -.11 0zm-.26-.13.09.07.07.06-.07-.06zm.38.26a.73.73 0 0 1 .25.27.73.73 0 0 0 -.25-.27m-.54-.25s0 .06 0 .07-.05 0 0-.07m.14.09s0 0 0 0m-.21-.11v.06-.06a.15.15 0 0 0 0 .09.15.15 0 0 1 0-.09m.32.28h-.06zm-.06 0a.61.61 0 0 0 -.26 0 .61.61 0 0 1 .26 0m.25.18h.05zm-.06 0c-.39-.18-.82 0-.55.62-.27-.64.16-.8.55-.62m.63.41h-.06zm-1.31-.73s0 0 0 0 0 .08 0 .1 0-.08 0-.1m-.08 0s0 0 0 0a.06.06 0 0 0 0 0s0 0 0 0m1.2.7v.06a1.23 1.23 0 0 0 .22.85 1.23 1.23 0 0 1 -.22-.85zm-1.26-.69v.05zm.34.2c0 .68 0 1.38-.1 2.1.07-.72.09-1.42.1-2.1m.27.19a.21.21 0 0 0 .06.07.21.21 0 0 1 -.06-.07m-.69-.37s0 0 0 0 0 .06 0 .07 0 0 0-.07m1.38.8c-.1.13 0 .55.11.59s-.21-.46-.11-.59m-1.44-.71s0 0 0 .08c0-.05 0-.08 0-.08m0 0s0 0 0 .08 0-.09 0-.08m1.66 1.13s0 0 0 .07a.16.16 0 0 0 0 .07.14.14 0 0 1 0-.07s0-.06 0-.07m-.03 0a.19.19 0 0 1 .05.07.19.19 0 0 0 -.05-.07m.26.19a0 0 0 0 1 0 0 0 0 0 0 0 0 0m0 0s0 0 0 0m-2.05-.95a.17.17 0 0 1 .06.06.17.17 0 0 0 -.06-.06m-.02.09a.11.11 0 0 1 0 .05.11.11 0 0 0 0-.05m.24.15a.06.06 0 0 1 0 0 .06.06 0 0 0 0 0m1.54.87s0 .1 0 .21a.67.67 0 0 0 .15.27.65.65 0 0 1 -.15-.27c0-.12-.07-.23 0-.22m-1.72-.88s0 0 0 0a0 0 0 0 1 0 0 0 0 0 0 0 0 0s0 0 0 0m.41.25a.34.34 0 0 0 .13.23.34.34 0 0 1 -.13-.23m.53.3a1.61 1.61 0 0 1 0 .31 1.61 1.61 0 0 0 0-.31m-.68-.33s0 0 0 0a.05.05 0 0 1 0 0 .05.05 0 0 0 0 0s0 0 0 0m.11.11a.2.2 0 0 1 .06.08.2.2 0 0 0 -.06-.08m-.02.11a0 0 0 0 1 0 0 0 0 0 0 0 0 0m0 0s0 0 0 0m-.17 0v.05zm0 0a.06.06 0 0 0 0 0 .06.06 0 0 1 0 0m2 1.42s-.05 0-.06 0 0 0 .06 0zm-1.34-.56a1 1 0 0 1 0 .24 1 1 0 0 0 0-.24m.13.24s0 0 0 0a0 0 0 0 1 0 0 0 0 0 0 0 0 0s0 0 0 0m.7.48a1.09 1.09 0 0 1 -.2.39 1.09 1.09 0 0 0 .2-.39m-.4.41a.09.09 0 0 0 0 .06.09.09 0 0 1 0-.06m-.92-.25s0 0 0 .07 0-.06 0-.07m-.33.03s0 .05 0 .06 0 0 0-.06m1 .61.07.05zm-1.32-.39a0 0 0 0 1 0 0 0 0 0 0 0 0 0zm3.56 2.35s0 0 0 .05 0 0 0-.05m-3.66-2s0 .06 0 .07 0 0 0-.07m.47.27.06.06.06.06-.06-.06zm.58.27s0 0 0 .06 0-.06 0-.06m-.55-.27a.51.51 0 0 0 .09.1.51.51 0 0 1 -.09-.1m3.36 1.91c-.06.06-.08.29-.15.39.06-.1.09-.33.15-.39m-3.6-1.93s0 0 0 0m.2.12s0 .07 0 .09 0-.07 0-.09m2.76 1.6s0 0 0 0m-4.22-2.37a.42.42 0 0 0 0 .11.42.42 0 0 1 0-.11.66.66 0 0 1 .13.45.66.66 0 0 0 -.13-.45m4.92 2.78s0 0 0 .06 0 0 0-.06m-3.78-2.08v.06zm0 0a.07.07 0 0 0 0 0 .07.07 0 0 1 0 0m.25.15a.59.59 0 0 1 .13.12.6.6 0 0 0 .11.11.6.6 0 0 1 -.11-.11.59.59 0 0 0 -.13-.12m.27.25s0 0 0 0m.7.41.06.05zm2.6 1.49s0 0 0 0m-3-1.66s0 0 0 0m3 1.7s0 0 0 0m-5.76-3.18a.11.11 0 0 0 0 .06.11.11 0 0 1 0-.06m5.78 3.28c-.05 0-.09.06-.13.06s.08 0 .13-.06m-5.42-3.04a.59.59 0 0 1 0 .19.59.59 0 0 0 0-.19m2.37 1.3a.06.06 0 0 0 0 0 .06.06 0 0 1 0 0zm2.34 1.33a0 0 0 0 0 0 0 0 0 0 0 1 0 0m.78.55a.21.21 0 0 0 -.14 0 .2.2 0 0 1 -.16 0 .21.21 0 0 0 .16 0 .2.2 0 0 1 .14 0zm-5.57-2.99s0 0 0 0m1.82 1.04c.14.09.25.24.34.3-.09-.05-.2-.21-.34-.3zm3.85 2.2h.05s0 .09 0 .14 0-.09 0-.14zm-.13-.06c-.09 0-.17 0-.2.09 0-.1.11-.12.2-.09m-.28-.16c-.08 0 .05.29 0 .25.08 0-.06-.27 0-.25zm.14.21.07.05zm.11.09.06.06zm-4.16-2.34s0 .06 0 .09 0-.06 0-.09m4.28 2.43c-.1 0-.23 0-.27 0s.17-.06.27 0m-6-3.34v.07zm0 0a.22.22 0 0 0 0 0 .17.17 0 0 0 0 .06.17.17 0 0 1 0-.06.22.22 0 0 1 0 0m-.45-.09c.09.05.1.18.16.26-.07-.08-.07-.21-.16-.26m4.55 2.56s0 0 0 0m-4.23-2.43a0 0 0 0 0 0 0 0 0 0 0 1 0 0m6 3.39.1.07zm-5.8-3.23s0 0 0 0a1 1 0 0 1 .16.59 1 1 0 0 0 -.16-.59zm3.48 2.03a0 0 0 0 0 0 0 0 0 0 0 1 0 0m-.18 0c0 .1-.12.1-.21.08.09 0 .17 0 .21-.08s0 .06 0 .07 0 0 0-.07m-1.84-1s0 0 0 0 .07.2 0 .34c0-.15-.05-.21 0-.34m4.49 2.53.07.05zm-5.47-3.12s0 .05 0 .1 0-.09 0-.1m-.86-.41a.39.39 0 0 1 .11.11.39.39 0 0 0 -.11-.11m0 0a.06.06 0 0 0 -.08 0 .06.06 0 0 1 .08 0m4.26 2.43c-.14.17-.19.83-.4.75.21.08.26-.59.4-.75m3.36 1.89a.09.09 0 0 1 0 .05.09.09 0 0 0 0-.05m-6.05-3.38a.06.06 0 0 1 0 0 .06.06 0 0 0 0 0m3.69 2.09.06.09zm-2.08-1.08s0 0 0 0m-.05 0c-.12.08-.33-.21-.51 0 0 0 0-.07 0-.08s0 0 0 .08c.19-.23.4.06.51 0zm2.03 1.14a3.42 3.42 0 0 0 .7.72 3.42 3.42 0 0 1 -.66-.69m-5-2.82s.1.13.12.16-.08-.13-.12-.16m0 0s0 0 0 0m.32.18v.07zm-.83-.46c.1.06.14.14.28.23-.14-.09-.17-.17-.28-.23m4.17 2.38h-.07zm2.13 1.22h-.13a1 1 0 0 1 -.24-.07 1 1 0 0 0 .24.07h.1m-6-3.35a.68.68 0 0 1 .25.21.68.68 0 0 0 -.25-.21m-.09 0s0 0-.06 0 .05 0 .06 0m6.46 3.65a.55.55 0 0 1 -.5 0 .55.55 0 0 0 .5 0m-6.05-3.41.08.06zm1.32.76s0 0 0 0m4.97 2.8h.05zm-6.21-3.5h.05m2.11 1.24s0 .14-.09.11 0-.11.09-.11 0 .06 0 .07 0 0 0-.07m1 .62c-.07 0-.13.12-.15.28 0-.16.08-.28.15-.28m-3.68-2 .26.16-.25-.16m2.64 1.5a.07.07 0 0 0 0 0 .07.07 0 0 1 0 0m3.24 1.88h.13-.08m1.72 1s0 0 0 .07a.17.17 0 0 0 0 .06.17.17 0 0 1 0-.06s0-.06 0-.07m-3.94-2.21s0 .07 0 .06 0 0 0-.06m-2.97-1.69.07.05zm5.3 3a.11.11 0 0 1 .05.07.11.11 0 0 0 -.08-.07m-5.52-3.1c0 .1-.17.05-.33 0 .16.08.31.12.33 0m4.17 2.35a.39.39 0 0 1 -.31 0 .39.39 0 0 0 .31 0m-3.76-2.11a.2.2 0 0 1 .06.07v.05-.05a.21.21 0 0 0 -.06-.07m-.05 0a1.23 1.23 0 0 1 -1.19-.08 1.23 1.23 0 0 0 1.19.08m-.94-.52.15.09.18.11-.23-.13-.15-.09m6.15 3.47h.05zm-6.21-3.49c-.06 0-.14 0-.14 0s.08 0 .14 0m1.21.73a.31.31 0 0 1 .1.11.31.31 0 0 0 -.1-.11m-1.07-.6h.06zm2.15 1.22v.05zm-1.08-.54a.27.27 0 0 1 .1.14.27.27 0 0 0 -.1-.14m0 0a.25.25 0 0 0 -.15 0 .24.24 0 0 1 -.2 0 .24.24 0 0 0 .2 0 .25.25 0 0 1 .15 0m3.5 2.02a.42.42 0 0 0 -.23 0 .42.42 0 0 1 .23 0c.16.51.48.82.62 1.28a.66.66 0 0 1 .11.1.58.58 0 0 0 .12.1.58.58 0 0 1 -.12-.1.66.66 0 0 0 -.11-.1c-.14-.47-.45-.77-.62-1.28m1.27.72.11.08zm-5.18-2.9a.09.09 0 0 0 .06.1.09.09 0 0 1 -.06-.1m4.41 2.49a.2.2 0 0 1 0 .06.2.2 0 0 0 0-.07m-5.4-3.04.17.12.23.11-.18-.12-.17-.12m5.35 3.07a.17.17 0 0 1 0 .07.17.17 0 0 0 0-.07m-3.77-2.08h.05zm-.06-.01a.29.29 0 0 0 -.18.08.29.29 0 0 1 .18-.08m4.9 2.95a.79.79 0 0 1 -.22-.06.79.79 0 0 0 .22.06m-5.65-3.18c-.22-.07-.4.1-.62 0 .21.1.4-.07.62 0m0 0a2.63 2.63 0 0 1 -.3.12 2.63 2.63 0 0 0 .3-.12m5.26 2.98.15.1zm-.86-.49a.08.08 0 0 0 0 .05.08.08 0 0 1 0-.05zm-.9-.49-.15-.07.15.07c0 .09.07.2.11.31 0-.11-.07-.21-.11-.31m-2.07-1.11h-.1c-.29.38-.55.86-1.19.51.64.35.89-.13 1.19-.51zm-2.54-1.43a2.19 2.19 0 0 0 .27.18 2.19 2.19 0 0 1 -.27-.18m3.17 1.79s.06.09.08.16a.25.25 0 0 0 .1.17.25.25 0 0 1 -.1-.17c0-.07 0-.13-.08-.16m-4.68-2.57a.56.56 0 0 0 0 .25.56.56 0 0 1 0-.25m2 1.11.07.05zm0 0a.17.17 0 0 0 -.23.07.17.17 0 0 1 .23-.07m2.54 1.5s0 0 0 0m-1-.52a.78.78 0 0 1 -1.07.19.78.78 0 0 0 1.07-.19m.51.38v.06zm-1.85-1.04a.5.5 0 0 1 -.2 0 .5.5 0 0 0 .2 0m4.33 2.5c.09.05.09.25.11.26s0-.21-.11-.26m-2.53-1.4c-.08 0-.12 0-.18 0s.1 0 .18 0m-1.21-.67a.75.75 0 0 1 -.59-.05.75.75 0 0 0 .57.09m-3-1.66a.13.13 0 0 0 0 .08.13.13 0 0 1 0-.08v.25s0-.19 0-.25m3.78 2.13s0 0 0 0m-.02 0h-.07a.06.06 0 0 1 0 0s0 0 0 0zm3.16 1.95h.05zm3.88 2.19a.14.14 0 0 0 0 .07.14.14 0 0 1 0-.07m-.1 0a.12.12 0 0 1 0 .09s0-.07 0-.09m-8.51-4.79.15.09zm2.24 1.23s0 0 0 0m.29.29s0 0 0 .07 0-.06 0-.07m-.17-.08a.54.54 0 0 1 -.83.33.54.54 0 0 0 .83-.33m1.71 1s-.07.15-.13.22c.06-.08.08-.24.13-.22m-1.79-1s0 0 0 0m-.58-.35a.45.45 0 0 1 -.36.08.45.45 0 0 0 .36-.08m3.45 2 .15.1zm-2.66-1.49a.25.25 0 0 0 -.15.19 1 1 0 0 1 0-.23 1 1 0 0 0 0 .23.25.25 0 0 1 .15-.19s0 0 0 0m2.91 1.64h-.09zm-1-.51s0 .06 0 .05 0 0 0-.05m.36.34.08.05zm.53.34c-1-.54-1.14 1-1.71 1.49.57-.49.68-2 1.71-1.49m-4.58-2.58a.21.21 0 0 0 0 0 .21.21 0 0 1 0 0m7.68 4.33a.05.05 0 0 0 0 0 .05.05 0 0 1 0 0m-4.58-2.54a0 0 0 0 1 0 0 0 0 0 0 0 0 0m-2.52-1.39h-.05zm2.5 1.41s0 .12 0 .1 0-.06 0-.1m-1.55-.81a.15.15 0 0 0 -.21 0s-.07.1-.12.08.08 0 .12-.07a.15.15 0 0 1 .21 0m1.52.86s0 0-.05.05a.11.11 0 0 1 0 .05.11.11 0 0 0 0-.05s0-.07.05-.05zm.35.23c.05 0 .12.12.19.16s-.14-.13-.19-.16m-.46-.17s0 0 0 0zm1.76 1c-.39-.18-.89.15-1.11.59.22-.44.73-.76 1.11-.59m-1.73-.93a.08.08 0 0 0 0 0 .08.08 0 0 1 0 0m1.78 1h.06.05-.06m-1.85-1a1.06 1.06 0 0 0 -.34-.09 1.11 1.11 0 0 1 .34.09l.07.05zm1.96 1.11s0 0 0 0m-.13-.07h.05zm-.07 0h.06m.26.15a.15.15 0 0 1 0 .05.15.15 0 0 0 0-.05m-.02.02a.06.06 0 0 0 0 0 .06.06 0 0 1 0 0m-.14-.06a.59.59 0 0 0 -.8.34.59.59 0 0 1 .8-.34m.16.12a.37.37 0 0 0 .09.1.37.37 0 0 1 -.09-.1m-7.21-4.01.05.17zm9.17 5.17a.06.06 0 0 1 0 0 .06.06 0 0 0 0 0m-1.97-1.17v.07zm1.95 1.11s0 .05-.06 0 0 0 .06 0zm-2.35-1.31.09.06zm-6.83-3.8a.09.09 0 0 1 0 0 .09.09 0 0 0 0 0m9.32 5.27a.08.08 0 0 1 0 0 .08.08 0 0 0 0 0m-2.77-1.52c-.57.16-.91 2.2-1.71 1.84.8.36 1.14-1.69 1.71-1.84zm-6.66-3.71s.06.17.09.26c0-.09-.05-.24-.09-.26m3.88 2.2a.17.17 0 0 0 .06.07.17.17 0 0 1 -.06-.07m-.08.07a.1.1 0 0 0 0 .07.1.1 0 0 1 0-.07m-.09.09s0 .07.05.09 0 0 0 0 0-.08-.05-.09m.76.46.07.06zm1.01.7h.06zm.11.07a.61.61 0 0 1 .13.12.61.61 0 0 0 -.13-.12m-.27-.15a.75.75 0 0 0 -.34-.08.75.75 0 0 1 .34.08m-5.57-3v.09zm4.21 2.47c-.35-.19-.71-.36-1.08-.53.37.16.74.34 1.08.53m.21.12.12.07-.12-.14m.64.37a0 0 0 0 1 0 0 0 0 0 0 0 0 0m-.06 0c0 .11-.06.23-.06.28s0-.16.06-.28m-5.1-2.78.14.43zm11.29 6.52.13.09zm-.8-.4.15.1zm-3.94-2.2a0 0 0 0 0 0 0 0 0 0 0 1 0 0m.09.08a0 0 0 0 1 0 0 0 0 0 0 0 0 0m4.43 2.51c-.54-.22-1.12-.47-1.7-.73.58.26 1.16.51 1.7.73m-4.11-2.26a.67.67 0 0 0 0 .14.67.67 0 0 1 0-.14m-7.18-4a.08.08 0 0 0 0 .05.09.09 0 0 1 0-.05m11.86 6.69-1.22-.53-.22-.17-.18-.1-.19-.11.19.11.17.1.26.13 1.23.55m-10.11-5.51a.09.09 0 0 1 0 .06.09.09 0 0 0 0-.06m5.56 3.14a.06.06 0 0 1 0 .05.06.06 0 0 0 0-.05m-7.57-4.24a.36.36 0 0 0 .15.14.37.37 0 0 1 -.15-.14m9.23 5.2c-.41-.19-.81-.39-1.18-.59.38.2.78.4 1.18.59m.46.3c-.16 0-.31.22-.47.33a4.13 4.13 0 0 1 -4.14.29c-.17-.08-.34-.16-.5-.25.16.09.33.17.5.25a4.13 4.13 0 0 0 4.14-.29c.16-.11.31-.34.47-.33"/><path d="m20.36 36.91a.1.1 0 0 0 0 .06.11.11 0 0 1 0-.06m.5.29.13.08zm-5.43-3.06h-.05zm5.24 2.96c-.06.06-.21 0-.35-.07.14.08.29.13.35.07m-6.84-3.85h.06m8.71 4.91a.07.07 0 0 0 -.07 0s0 0-.06 0 0 0 .06 0a.06.06 0 0 1 .07 0m-3.5-2a.06.06 0 0 1 0 0 .05.05 0 0 0 0 0m3.22 1.91v.08s0 0 0-.08m-6.8-3.77h-.05zm4.61 2.61.21.14zm1.13.64c-.07.07-.17.08-.3 0 .13.07.23.06.3 0m-7.36-3.99h.05zm6.91 3.92a.3.3 0 0 0 .11.12.3.3 0 0 1 -.11-.12m-1.49-.74-.12.06zm2.54 1.46a.47.47 0 0 1 0 .12 1.2 1.2 0 0 0 -.18-.17 1.2 1.2 0 0 1 .18.17.47.47 0 0 0 0-.12m-7.94-4.38a0 0 0 0 0 0 .05 0 0 0 0 1 0-.05m4 2.28a1.24 1.24 0 0 1 .26.3 1.24 1.24 0 0 0 -.26-.3m0 0c-.05 0-.08 0-.08.18 0-.16 0-.2.08-.18m-3.88-2.15s0 0-.05 0 .01.05.01.05m3.54 2a0 0 0 0 1 0 0 0 0 0 0 0 0 0m-3.36-1.83s0 0 0 0l-.18-.12-1.72-.77 1.72.77.15.06c.06 0 .07 0 0 0m7.55 4.27h.07zm-3.44-1.94v.07.25c0-.1 0-.16 0-.25zm-.63-.34s0 0 0 0m-.3-.17v.1zm-3.18-1.78a6.84 6.84 0 0 0 -.9-.4 6.48 6.48 0 0 1 -.88-.39l-.15-.09.15.09a6.64 6.64 0 0 0 .88.39 6.68 6.68 0 0 1 .9.4zm3.49 2.02s0 0 0 0m-3.58-1.78a4.09 4.09 0 0 0 -.47-.19 4.09 4.09 0 0 1 .47.19m.17.09.12.09a3.76 3.76 0 0 1 .37.67 3.76 3.76 0 0 0 -.37-.67zm1 .57a.22.22 0 0 0 -.1.11.22.22 0 0 1 .1-.11m2.86 1.69s0 0 0 0m.9.54s0 0 0 .08 0 0 0 0 0-.07 0-.08m-.75-.42h.06zm-.62-.35v.07zm-2.14-1.18c0 .09-.08.15-.15.15s.13-.06.15-.15m2.21 1.25v.05zm-2.75-1.58a.63.63 0 0 0 0 .19.63.63 0 0 1 0-.19m2.66 1.5s0 0 0 0m-2.1-1.18c0 .15-.11.2-.21.17.1 0 .18 0 .21-.17m5.4 3.11.07.05zm-.16 0a.16.16 0 0 0 -.15.09.16.16 0 0 1 .15-.09m-5.55-2.98.07.05zm6.1 3.44c0 .11-.1.12-.21.08.1 0 .19 0 .21-.08m-.37-.2s-.06 0-.1 0 .06 0 .1 0zm-2.34-1.25s0 0 0 0m-2.58-1.44a.25.25 0 0 1 .09.09.25.25 0 0 0 -.09-.09m-1.17-.65.07.13zm3.48 1.99h.07zm.1.06-.15-.07zm-.24-.13.09.06zm2.69 1.56.11.08zm-4.96-2.67a.24.24 0 0 1 .06.1.29.29 0 0 0 .06.09.29.29 0 0 1 -.06-.09.24.24 0 0 0 -.06-.1m0 0s0 .07-.07.08 0-.08.07-.08m4.05 2.29c-.09 0-.16.05-.17.12s.08-.11.17-.12m-1.53-.68-.42-.22.44.22m-.44-.26h.07zm-2.26-1.28c.07.1.14.25.22.29s-.14-.2-.22-.29m1.26.75a.2.2 0 0 1 .07.07.2.2 0 0 0 -.07-.07m-1-.55h.05zm3.22 1.85c-.09 0-.18 0-.2.09 0-.11.11-.13.2-.09m-1.81-.82.1.07zm0 0c-.1-.06-.2-.06-.23 0 0-.09.13-.09.23 0m.95.54h.05zm.66.39c.07.14.25.19.27.37a.16.16 0 0 1 -.21.16.16.16 0 0 0 .21-.16c0-.19-.2-.23-.27-.37m1.06.69a.07.07 0 0 0 -.06 0 .06.06 0 0 1 -.05 0 .06.06 0 0 0 .05 0 .07.07 0 0 1 .06 0zm-1.17-.42.07.08a.35.35 0 0 0 .09.09.35.35 0 0 1 -.09-.09zm.56.5h-.12zm-.09 0a7 7 0 0 1 -1.3-.56 7 7 0 0 0 1.3.56m-.07 0a6.51 6.51 0 0 1 -1.31-.61 6.54 6.54 0 0 0 1.34.56m-1.34-.6h.08zm-.08 0h.05zm.12.16h.05z"/><path d="m20.24 20.92c-.45.68-.92 1.32-1.35 2a2.77 2.77 0 0 0 .67-.88 4.38 4.38 0 0 1 .68-.91c1.21 4.4 2.43 8.79 3.69 13.15a8.27 8.27 0 0 0 -.42-1.69c-1.1-3.94-2.16-7.81-3.27-11.71"/><path d="m20 22.92c0 .13-.12.16-.16.29a.06.06 0 0 0 0 0s.11-.09.16-.13c1.09 3.92 2.23 7.92 3.3 11.74a1.92 1.92 0 0 0 .24.72q-1.72-6.36-3.54-12.62"/><path d="m20.1 23.47a4 4 0 0 0 -4.42.27 6.25 6.25 0 0 0 -2.17 4.05v.18a9.22 9.22 0 0 0 0 3 10.53 10.53 0 0 1 0-2.91 7.23 7.23 0 0 1 1.71-3.82 4.1 4.1 0 0 1 4.86-.82"/><path d="m21.23 24.23a10.46 10.46 0 0 1 3.2 5 11.39 11.39 0 0 1 .45 2.16 10.8 10.8 0 0 1 0 2.8v.13a7.94 7.94 0 0 1 -1.18 3.05c.2 0 .3-.35.41-.57a7.83 7.83 0 0 0 .83-2.56 11.5 11.5 0 0 0 -1.5-7.51 6.92 6.92 0 0 0 -2.18-2.52"/><path d="m19.53 24.29c-2.16-.72-3.77.19-4.71 2.15a7.14 7.14 0 0 0 -.59 1.95 6.67 6.67 0 0 0 -.05 1.61c.06-.45 0-1 .12-1.49v-.08c.49-3.22 2.5-4.68 4.74-4.16.15 0 .34.14.48 0"/><path d="m20.32 24.64h-.06a.1.1 0 0 0 -.08 0 .12.12 0 0 0 0 .08h.06.06a.14.14 0 0 1 .06.06.14.14 0 0 0 0 0 .23.23 0 0 0 -.13-.17"/></g><path d="m19.86 24.77s0 0 0 0h.12a0 0 0 0 0 0 0l-.08-.06" fill="#231f20"/><path d="m20.16 24.9s-.07 0-.08 0 .07 0 .08 0" fill="#fff"/><path d="m20 24.9a2.21 2.21 0 0 0 0 .23 1.09 1.09 0 0 0 0-.24" fill="#fff"/><path d="m20.16 25a0 0 0 0 0 0 0s0 0 0 0v.15s0 0 0-.13" fill="#fff"/><path d="m19.88 24.89h-.06a0 0 0 0 0 0 0 .14.14 0 0 0 .1 0" fill="#231f20"/><path d="m21.69 25.76s0 0 0 0a.05.05 0 0 0 0 0s0 0 0 0a.06.06 0 0 0 0 0 10.09 10.09 0 0 1 2.4 5.34 9.19 9.19 0 0 1 0 2.58 6.74 6.74 0 0 1 -1 2.75c-.09.13-.25.19-.27.39a.43.43 0 0 0 0 .06 5.91 5.91 0 0 0 1.37-3.08 9 9 0 0 0 .1-1 10 10 0 0 0 -2.55-7.2" fill="#fff"/><path d="m20.06 25.08s0 .14 0 .21 0 .11 0 .12 0-.15 0-.22 0-.1 0-.1" fill="#fff"/><path d="m18.08 24.21c-2 3-4.07 6-6 9.14.73.29 1.48.62 2.23 1a.21.21 0 0 0 0-.06l-.14-.08a6.68 6.68 0 0 0 -.9-.4 6.64 6.64 0 0 1 -.88-.39l-.15-.09c1.71-2.64 3.47-5.33 5.19-7.91a5.41 5.41 0 0 0 .7-1.15" fill="#fff"/><path d="m19.83 25s0 0-.05 0a.07.07 0 0 0 0-.07" fill="#231f20"/><path d="m20.1 25.33s0 .07 0 .1.07 0 .08 0 0-.07-.05-.1" fill="#fff"/><path d="m19.85 26.83c0 .2-.07.4-.1.61-.07.45-.13.93-.19 1.41.07-.28.14-.62.19-1a9.4 9.4 0 0 0 .11-1" fill="#fff"/><path d="m19.71 27.24v.07-.09" fill="#fff"/><path d="m20.77 28s0 0 0 0a0 0 0 0 0 0 0" fill="#fff"/><path d="m18.91 27.2v.05s0 0 0 0a.06.06 0 0 0 0 0" fill="#fff"/><path d="m19.68 27.54a.48.48 0 0 0 0 .14v.3a.37.37 0 0 0 0 .12 1.61 1.61 0 0 0 0-.31s0-.07 0-.12a.21.21 0 0 0 0-.12" fill="#fff"/><path d="m18.73 27.19a0 0 0 0 0 0 0s0 0 0 0" fill="#fff"/><path d="m18.75 27.35s0 0 0 0a0 0 0 0 0 0 0" fill="#fff"/><path d="m19 27.44v.05s0 0 0 0a.05.05 0 0 0 0 0s0 0 0 0" fill="#fff"/><path d="m19.06 27.66s0 0 0 0a0 0 0 0 0 0 0" fill="#fff"/><path d="m18.86 27.64a.06.06 0 0 0 0 0s0 0 0 0v-.05" fill="#fff"/><path d="m19.55 28.53a1.7 1.7 0 0 0 0 .23 1 1 0 0 0 0-.24" fill="#fff"/><path d="m19.68 28.76a0 0 0 0 0 0 0s0 0 0 0" fill="#fff"/><path d="m19.7 29.66s-.07 0-.08 0 .07 0 .08 0" fill="#fff"/><path d="m18.87 29.54s-.07 0-.08 0 .07 0 .08 0" fill="#fff"/><path d="m18.74 29.52s0 0 0 0 0 0 0-.06" fill="#fff"/><path d="m18.64 29.55s0 0-.06 0 0 0 .05 0a.06.06 0 0 0 0-.05" fill="#fff"/><path d="m18.45 29.74a.06.06 0 0 0 0 0 .06.06 0 0 0 .07 0 0 0 0 0 0 0 0" fill="#fff"/><path d="m18.39 29.86a.46.46 0 0 0 0 .09s0 .06 0 .07a0 0 0 0 1 0 0s.05-.08 0-.11" fill="#fff"/><path d="m16.84 29.2s0 0 0 0a0 0 0 0 0 0 0" fill="#231f20"/><path d="m16.85 29.31v.3a.71.71 0 0 0 0-.3" fill="#231f20"/><path d="m18.81 30.24a.51.51 0 0 0 .09.1 0 0 0 0 0 0 0l-.06-.06-.06-.06" fill="#fff"/><path d="m17.28 29.58a.42.42 0 0 0 0 .11.55.55 0 0 0 .09.42v-.11a.66.66 0 0 0 -.13-.45" fill="#fff"/><path d="m19.35 30.55q0 .1 0 .18v-.11a.29.29 0 0 0 0 0s0-.06 0-.06" fill="#fff"/><path d="m18.57 30.23v.05s0 0 0 0" fill="#fff"/><path d="m18.44 30.31a.07.07 0 0 0 0 0s0 0 0 0v-.06" fill="#fff"/><path d="m16.85 29.68s0 .13 0 .19 0 0 0 0a.44.44 0 0 1 0 0 .59.59 0 0 0 0-.19" fill="#231f20"/><path d="m16.29 29.53h-.1c0 .2.07.32.16.5a.12.12 0 0 0 0 0c0-.11-.08-.27-.07-.41" fill="#fff"/><path d="m17.5 30.25a.6.6 0 0 0 0 .33.78.78 0 0 0 0-.33" fill="#231f20"/><path d="m17 30.15v.07-.09" fill="#fff"/><path d="m16 29.87h-.05c0 .15.11.16.1.21a0 0 0 0 1 0 0s0 0 0 0-.07-.21-.16-.26" fill="#fff"/><path d="m18.18 30.88s0 .06 0 .09 0 .29.06.36 0 0 0 0v.06a.15.15 0 0 0 0-.08.61.61 0 0 0 -.2-.42" fill="#fff"/><path d="m15.84 30a.23.23 0 0 0 0 .1.07.07 0 0 0 0 .07c0-.05 0-.07.06-.07v.13l.17.08a.47.47 0 0 0 -.2-.31" fill="#fff"/><path d="m17.47 30.77s0 0 0 .06a.31.31 0 0 0 0-.06m0 .06c0 .08-.06.07-.07.14a.17.17 0 0 0 0 0c.08.13.05.35.13.49 0-.24 0-.45-.05-.69" fill="#231f20"/><path d="m22.48 33.12-.13-.06c-.09 0-.17 0-.2.09a.06.06 0 0 1 .08 0l.07.06.06.06a.37.37 0 0 1 0-.06s0 0 0 0 0-.09 0-.14h-.05" fill="#fff"/><path d="m15.75 30.18s0 .07 0 .1a.08.08 0 0 0 0 .08s0-.11.07-.08a.06.06 0 0 0 0 0 .15.15 0 0 0 0 .11s.05 0 .06 0c-.14-.09-.17-.17-.28-.23" fill="#fff"/><path d="m22 33s-.07 0-.08 0 .08 0 .08 0" fill="#231f20"/><path d="m16.11 30.46h-.06a.5.5 0 0 0 .15.21.25.25 0 0 0 .14 0 .68.68 0 0 0 -.25-.21" fill="#fff"/><path d="m22.46 33.35c-.1-.05-.23 0-.27 0h.05.07l.1.07v.05s0 0 0 0a.2.2 0 0 0 0-.15" fill="#fff"/><path d="m16.43 30.67h.06l-.08-.06" fill="#fff"/><path d="m19.53 32.27s-.07 0-.08 0 .07 0 .08 0" fill="#fff"/><path d="m16.48 31a.41.41 0 0 1 -.29-.08l-.19-.13-.15-.09h-.07c-.06 0-.14 0-.14 0s0 0 .07.06l.25.16h.06l.13.07c.16.08.31.12.33 0" fill="#231f20"/><path d="m21.66 33.31s0 0 0 0a.06.06 0 0 0 0 0s0 0 0 0z" fill="#fff"/><path d="m19.24 32.57a5.68 5.68 0 0 0 -.05 1.3 12.58 12.58 0 0 0 .05-1.3" fill="#fff"/><path d="m21.49 33.65s-.07 0-.08 0 .07 0 .08 0" fill="#231f20"/><path d="m16.46 31.47c-.22-.07-.4.1-.61 0s.1.07.11 0a.17.17 0 0 0 0 0l-.07-.05a.17.17 0 0 0 -.23.07l.09.1.1.07h.1a.5.5 0 0 0 .2 0h.14a2.63 2.63 0 0 0 .3-.12" fill="#fff"/><path d="m19.88 33s0 0 0 0v.12s0-.07 0-.11" fill="#231f20"/><path d="m22.66 34.28c-.09 0-.21-.12-.25 0s.21.12.25 0" fill="#231f20"/><path d="m22.23 34.2s-.09-.05-.1 0 .09.05.1 0" fill="#231f20"/><path d="m18.1 32.49v-.09" fill="#fff"/><path d="m21.78 34.22c-.09 0-.18-.07-.18 0s0 0 .09.08c.08 0 .18.08.21.06l-.11-.08" fill="#231f20"/><path d="m18.1 32.66v.14s0 0 0 0" fill="#fff"/><path d="m18.27 32.78v.05s0 0 0 0" fill="#fff"/><path d="m17.19 32.44s0 0 0 0a.05.05 0 0 0 0 0" fill="#fff"/><path d="m19.94 33.78c.11.26.08.45.19.69-.06-.05-.07-.15-.11-.23 0 .13.07.25.06.33a.09.09 0 0 1 0 0 .07.07 0 0 1 .06 0 .11.11 0 0 1 0 .1 1.2 1.2 0 0 1 .25.29 1.16 1.16 0 0 0 0-.33c-.29-.19-.28-.8-.47-1m.24.8v-.05.06s0 .06 0 .05" fill="#fff"/><path d="m14.39 31.72a6.52 6.52 0 0 0 .55 2 7.7 7.7 0 0 0 3 3.79h.07l.44.22a8.71 8.71 0 0 1 -4.07-6.05" fill="#fff"/><path d="m18.36 33.5c-.14 0-.2.2-.33.25.11 0 .31 0 .34-.13a.31.31 0 0 0 0-.11" fill="#fff"/><path d="m19.19 34.66s-.07 0-.08 0 .07 0 .08 0" fill="#fff"/><path d="m18.5 34.39s0 0 0 0a0 0 0 0 0 0 0" fill="#fff"/><path d="m18.76 34.57h-.06a.05.05 0 0 0 0 0 0 0 0 0 0 .06 0z" fill="#fff"/><path d="m21.07 35.65h-.07s0 0 0 0" fill="#fff"/><path d="m21.31 35.83a.06.06 0 0 0 0 0s0 0 0 0a.15.15 0 0 0 0-.05" fill="#fff"/><path d="m24 37.16c0 .13.07.26.06.35a.09.09 0 0 1 0 0c-1-.42-1.93-.9-2.86-1.32-.19-.09-.4-.24-.52-.16 1.08.55 2.37 1.14 3.52 1.65a1.4 1.4 0 0 0 -.17-.58" fill="#fff"/><path d="m18.2 35-.09-.05c-.35-.19-.71-.36-1.08-.53-.68-.3-1.37-.58-2-.89l3.45 1.55-.16-.08-.1-.06" fill="#fff"/><path d="m19.64 35.57-.16-.08a.76.76 0 0 0 -.34-.08 7.11 7.11 0 0 0 .76.34.6.6 0 0 0 -.13-.12h-.05-.06" fill="#fff"/><path d="m19 35.41s0 0 0 0h.05a0 0 0 0 0 0 0" fill="#fff"/><path d="m18.45 35.26c-1-.5-2.31-1.1-3.23-1.45h.08.08c-.06 0-.25-.09-.25-.05h.07.08a.09.09 0 0 1 0 .06s-.16-.08-.17-.06h.07a.27.27 0 0 1 .11.12h-.05s0 0-.06 0a.85.85 0 0 1 .24.18h-.05s0 0 0 0 .07.06.06.08h.06.06a.06.06 0 0 1 0 .06s-.07 0-.08 0h.06s0 0 0 .06h.06.07a.07.07 0 0 1 0 0c0 .05-.12-.06-.13 0l2.87 1.74a.33.33 0 0 0 .08-.17 5.24 5.24 0 0 0 0-.59" fill="#fff"/><path d="m19.79 35.86c-.22-.07-.54-.32-.69-.24s-.07 0-.08 0a.07.07 0 0 1 0 .08s-.07 0-.08 0a.05.05 0 0 1 0 0s-.06 0-.07 0 0 0 0 .1-.07 0-.08 0c.07 0 0 .05-.06.07a0 0 0 0 1 0 0s-.07 0-.08 0 0 .06 0 .08h.05a.05.05 0 0 1 0 0 .19.19 0 0 0 0 .06s-.07 0-.08 0 0 0 0 .06 0 0-.05 0l.42.19a5.16 5.16 0 0 0 .38-.76m-.66.52c.06-.06.2.08.3.1s-.2-.08-.3-.1" fill="#fff"/><path d="m19.43 36.49c-.09 0-.24-.16-.3-.1.09 0 .24.15.3.1" fill="#231f20"/><path d="m21.17 37.27s-.05 0-.06 0 0 0 .06 0z" fill="#231f20"/><path d="m24.25 38.69c-1-.4-2.1-1-2.94-1.32.92.44 2.11 1 2.94 1.32" fill="#231f20"/><path d="m18.39 36.06-2.77-1.24v.11l2.08.94c.21.1.47.3.65.18" fill="#fff"/><path d="m15.23 34.67c0 .21-.14.3-.29.3a.63.63 0 0 0 0 .19.68.68 0 0 0 .17.24l.07.05h.06c.1 0 .18 0 .21-.17 0-.24-.16-.43-.27-.63m.1.29a.23.23 0 0 1 .07.21c0 .09-.08.15-.15.15h-.05a.38.38 0 0 1 -.1-.14.34.34 0 0 1 0 0 .21.21 0 0 1 0-.05.22.22 0 0 1 .1-.11.14.14 0 0 1 .14 0" fill="#231f20"/><path d="m18 36.12c-.05 0-.08 0-.08.18a.51.51 0 0 1 .14.22.61.61 0 0 0 .11.17h.06.06c0-.1 0-.16 0-.25v-.07a1.24 1.24 0 0 0 -.26-.3" fill="#fff"/><path d="m15.33 35a.14.14 0 0 0 -.14 0 .22.22 0 0 0 -.1.11.21.21 0 0 0 0 .05.37.37 0 0 0 .1.14h.05c.07 0 .13-.06.15-.15a.23.23 0 0 0 -.07-.21" fill="#fff"/><path d="m21.68 37.78a4 4 0 0 1 -3 .06 3.15 3.15 0 0 0 2.8.11c.09 0 .24-.06.25-.14a.06.06 0 0 0 0 0" fill="#fff"/><path d="m17.59 36a0 0 0 0 0 0 0" fill="#fff"/><path d="m17.62 36.11s0 0 0 0" fill="#fff"/><path d="m17.58 36.2s0 0 0 0" fill="#fff"/><path d="m18.05 36.62v.05s0 0 0 0" fill="#fff"/><path d="m17.62 36.46s0 0 0 0v-.05" fill="#fff"/><path d="m15.89 35.76c0 .24-.18.28-.27.42l.06.06c.07.1.14.25.22.29h.1-.05a.45.45 0 0 1 -.14-.23s0-.08.07-.08a.24.24 0 0 1 .06.1.29.29 0 0 0 .06.09s0 0 0 0-.16-.12-.14-.24 0 0 .06 0a.25.25 0 0 1 .09.09c0 .06.05.13.08.2 0-.18-.18-.32-.27-.46" fill="#231f20"/><path d="m19.05 37.18s-.09-.05-.1 0a0 0 0 0 1 0 0s0 0 0 0 0-.07 0-.08 0 .07 0 .1h.1a.15.15 0 0 1 0-.05c0-.05.05 0 .06-.06" fill="#fff"/><path d="m17.7 36.61a.15.15 0 0 0 0 .06s0 0 0 0a0 0 0 0 0 0 0" fill="#fff"/><path d="m20.9 38.42a.3.3 0 0 0 -.16 0 .16.16 0 0 0 -.15.09 1 1 0 0 1 .13.56h.16a.21.21 0 0 1 -.06-.19l.11.08h.05.08c.1 0 .19 0 .21-.08a.38.38 0 0 0 0-.1s-.06 0-.07 0 0 .06 0 .09 0 0 0 0a.79.79 0 0 1 -.19-.19.22.22 0 0 0 0-.23l-.07-.05m-.05.06a.21.21 0 0 1 0 .16s-.06 0-.1 0h-.05c0-.07 0-.12 0-.21a.1.1 0 0 1 .1 0" fill="#231f20"/><path d="m20.84 38.48a.1.1 0 0 0 -.1 0v.21h.05s.06 0 .1 0a.21.21 0 0 0 0-.16" fill="#fff"/><path d="m16.6 36.61a.43.43 0 0 1 0 .06 1.39 1.39 0 0 1 -.22.45l.06.06a1 1 0 0 1 0-.12c0-.11.06-.17.12-.18a1.84 1.84 0 0 0 .17.61 1.65 1.65 0 0 1 .22-.47.2.2 0 0 0 -.07-.07.42.42 0 0 1 0 .11.2.2 0 0 1 -.1.16c-.07-.2-.06-.48-.19-.62" fill="#231f20"/><path d="m18.56 37.51v.06-.08" fill="#fff"/><path d="m20.12 38.46a.37.37 0 0 0 -.22 0c-.09 0-.16.05-.17.12a.12.12 0 0 0 0 .05c0-.07.1-.07.18 0a1.9 1.9 0 0 1 .09.37.06.06 0 0 0 .05 0 .07.07 0 0 1 .06 0c0-.17 0-.36-.08-.54s.07 0 .11 0l.1.08a.21.21 0 0 0 -.09-.15" fill="#231f20"/><path d="m17.5 37.46c-.1-.06-.2-.06-.23 0a.23.23 0 0 1 .14 0 .22.22 0 0 1 .08.1 1.83 1.83 0 0 1 -.14.4s0-.09 0-.14a.78.78 0 0 1 .1-.31h.06c.05 0 .07.1.12.13a.64.64 0 0 0 -.21-.28l-.1-.07" fill="#231f20"/><path d="m19.14 38.28c-.09 0-.18 0-.2.09a.27.27 0 0 0 0 .08c.07.14.26.18.27.37a.09.09 0 0 1 -.09 0 .35.35 0 0 1 -.09-.09l-.07-.08a.25.25 0 0 0 .12.24h.06a.16.16 0 0 0 .21-.16c0-.19-.2-.23-.27-.37a0 0 0 0 1 .07 0s0 0 0 0a.22.22 0 0 0 -.08-.14" fill="#231f20"/><path d="m18.27 37.93a3.15 3.15 0 0 1 0 .39.83.83 0 0 1 -.06.21s0 0 .06 0a.32.32 0 0 1 0-.23c0-.12.06-.24.08-.32h-.05-.07" fill="#231f20"/><path d="m19.58 39.13a0 0 0 0 0 0 0 0 0 0 0 0 .06 0" fill="#231f20"/><path d="m18.42 22.89a3.72 3.72 0 0 0 -3 1l-.33.33a4.42 4.42 0 0 1 .59-.54 3.72 3.72 0 0 1 2.73-.68v-.07m0 .15a3.85 3.85 0 0 0 -3.16 1.25 3.84 3.84 0 0 1 3.16-1.24v-.09m4.41 2.64v.08c.22.31.43.64.62 1a12.37 12.37 0 0 1 1.22 2.91h.07c-.06-.23-.12-.46-.19-.66a11.12 11.12 0 0 0 -1.72-3.35m0 .2v.18a10.89 10.89 0 0 1 1.67 3.28 11.09 11.09 0 0 0 -1.66-3.36m-4.58-1.92a3.5 3.5 0 0 0 -2.26.78 3.2 3.2 0 0 1 2.25-.78m0 .14a3.31 3.31 0 0 0 -2.11.71l1.11.62.87-1.27a5.36 5.36 0 0 1 -.7 1.15l-.1.15h.08l.84-1.27v-.14m4.39 2.71v.08a10.08 10.08 0 0 1 1.09 2.18h.08a10.68 10.68 0 0 0 -1.16-2.31m0 .19-.21 1.34 1.21.68a10.11 10.11 0 0 0 -1-2m-.21 1.34h-.06v.14-.11m-.16-.09.13.46-.11-.4m-.73-.41h-.07l.68 2.41v-.14l-.63-2.23m-.16-.09-.45-.25a3.09 3.09 0 0 1 .06 1.21c-.3-.2-.23-.71-.47-1a3.94 3.94 0 0 0 .2.77.69.69 0 0 1 -.15-.27c0-.12-.07-.23 0-.22a1.23 1.23 0 0 1 -.22-.85v-.06l-.4-.22a11.67 11.67 0 0 1 -.29 1.88c.06-.48.12-1 .19-1.41l.08-.49-.28-.16v.06a.2.2 0 0 0 .06.07c0 .59-.18 1.2-.21 1.88-.08 0-.12 0-.21 0 .07-.72.09-1.42.1-2.1-.17.08-.24.29-.09.65v.07.27a.33.33 0 0 1 -.13-.23c0-.09 0-.18-.1-.21s0-.06.08 0-.06-.06-.06-.07 0 0 .07 0a.57.57 0 0 1 .25-.38l-.34-.28a.15.15 0 0 1 0 .05v-.05.09a.2.2 0 0 1 0-.07s0 0 0 0 0 .1 0 .14c0-.05 0-.08 0-.08s0 0 0 .08 0 0 0 0a.2.2 0 0 1 0 .11s0 0 0 .07a.25.25 0 0 0 0 .12.15.15 0 0 0 -.3.04c0 .07.07.06.07.13a.21.21 0 0 1 0 0s0 0 0 0a.12.12 0 0 0 0-.05 2.27 2.27 0 0 0 .56 1.33 1.83 1.83 0 0 1 -.73-1.44s0-.09 0-.13 0-.11 0-.16a1.37 1.37 0 0 1 .11-.36l-.53-.3-.23.34-.53 3.39a.5.5 0 0 1 0 .36l.05-.13c.43.5 0 1.63.25 2.19a.24.24 0 0 0 0-.09c0-.18-.09-.4-.09-.59 0-.16.1-.08.12-.19a.12.12 0 0 0 0 0s0 0 0 0a9.83 9.83 0 0 0 -.06-1 3.14 3.14 0 0 1 .2 1.53 1.48 1.48 0 0 1 -.11.38.15.15 0 0 0 0 .11l.14.08a.88.88 0 0 1 .38-.84c.33-.16 1 .13 1.3.08.08 0 .15 0 .16-.12a.26.26 0 0 0 0-.1.06.06 0 0 0 0 0 .33.33 0 0 0 -.07-.14l-.06-.06s.08 0 0-.05a.17.17 0 0 1 .16 0c0-.18-.19-.24-.3-.35a.88.88 0 0 0 .26.26c-.08.09-.21.05-.31.07a.34.34 0 0 1 0-.17s0 0 0 0 0 .12 0 .16a2.1 2.1 0 0 0 .3.31c-.12.1-.26 0-.37.09a9.78 9.78 0 0 1 .1-1.54.46.46 0 0 1 .26 0 .19.19 0 0 1 .09.15l-.06-.05a.12.12 0 0 0 -.11 0s-.05 0-.08 0a.13.13 0 0 1 0 .06c0 .15.18.21.25.33h-.12a.15.15 0 0 1 -.11 0 .09.09 0 0 1 0 0s-.05 0-.06.11a1.91 1.91 0 0 0 .42-.07 1.39 1.39 0 0 1 .54 1.33v.09c-.21 1-1.24.23-1.74.58 0 0 .1 0 .14.13a.6.6 0 0 0 0 .09 1 1 0 0 1 0-.1c0-.11.05-.19.14-.15v.07s0 0 0 0c0 .08.1.17.11.19a.71.71 0 0 1 0 .23h.09c0-.15 0-.31 0-.46a3.29 3.29 0 0 1 0 .48v-.01a1.53 1.53 0 0 1 .3.22l.21.12c0-.06 0-.13.05-.22a1 1 0 0 0 0-.2.14.14 0 0 1 0-.06v.14a0 0 0 0 1 0 0c.11 0 .07-.27.16-.29s-.08.07-.1.13a.21.21 0 0 1 0-.07c0-.18.29-.19.33-.42s0 .09-.05.11a.21.21 0 0 0 .09-.07c.12-.19.15-.56.27-.72a2.19 2.19 0 0 1 0 .42c-.09.59-.43.82-.65 1.18.21.07.26-.59.4-.75a.14.14 0 0 1 .05.12c0 .05 0 .11-.06.19a2.93 2.93 0 0 0 .36-.84c-.09 0-.1.27-.18.33s0 0 0 0a.12.12 0 0 0 0-.06.09.09 0 0 0 0 0 .87.87 0 0 1 0-.22.67.67 0 0 1 .34-.5 1 1 0 0 1 0 .22c0 .24-.13.45-.18.73a1.62 1.62 0 0 0 0 .21c-.14.22-.34.29-.46.55h.08a.39.39 0 0 0 .31 0 .26.26 0 0 0 .09-.09 4.52 4.52 0 0 1 0-.72 1.76 1.76 0 0 1 .6-1.21 1.76 1.76 0 0 1 0 .58c-.09.6-.5.95-.61 1.41.26.12.34 0 .37-.25s0-.28 0-.41a.64.64 0 0 1 0-.17.23.23 0 0 1 0 .12v.21a.46.46 0 0 0 0 .12 1.41 1.41 0 0 0 .09-.34 1.32 1.32 0 0 0 0-.29v.09s.06-.09.08-.18a.32.32 0 0 0 0-.15s0 0 0 0v-.07s0 0 0 0a.46.46 0 0 0 0-.09c0-.17 0-.33 0-.48s.31-.34.37-.66a1.43 1.43 0 0 1 .07.65v.06c0 .13-.2.23-.3.43l.24.19a1.08 1.08 0 0 0 0 .19v.31a1.35 1.35 0 0 1 0 .13 2 2 0 0 0 -.15.39.74.74 0 0 0 0 .15 0 0 0 0 0 .06 0c0-.17 0-.33.05-.47a2.25 2.25 0 0 1 .49-1.24l.16-1-.73-2.62m-1.65-.44v-.09zm-.07.75a.37.37 0 0 1 0-.12c0-.1 0-.21 0-.3a.51.51 0 0 1 0-.14v.24a1.27 1.27 0 0 1 0 .32m-.7-.82s0 0 0-.05 0 0 0 0a.07.07 0 0 1 0 0s0 0 0 0m-.17-.01s0 0 0-.05 0 0 0 0a.06.06 0 0 1 0 0s0 0 0 0m2.09 1.9c-.09-.13-.08-.61-.17-.83.12.21.11.54.23.75s-.05 0-.06 0a.22.22 0 0 0 0 .09m-1.88-1.61a.12.12 0 0 1 0-.05s0 0 0 0m0 3.72c-.09-.05-.2-.21-.34-.3 0-.09.09 0 .16 0a1.56 1.56 0 0 1 -.68-1.17 1.79 1.79 0 0 1 0-.27c.14-.92 1.12-.43 1.65-.6 0-.05 0-.1 0-.13v-.06a.35.35 0 0 0 -.08-.3c0-.1 0-.25 0-.35a.26.26 0 0 1 0-.11c1 .55.7 2.39-.32 2 .09-.08.48.12.55-.15a.1.1 0 0 0 0 .06s0 0 0-.09.05 0 .08 0a1.07 1.07 0 0 0 .2-.39c-.1.13-.2.32-.26.28s0 0 0 .06 0 .08 0 .06 0 0 0-.05a6.62 6.62 0 0 1 -.94 0s0-.06 0-.07a.53.53 0 0 0 -.76.41.78.78 0 0 0 0 .25c.05.34.26.43.55.68v.06c.1 0 .14-.06.23 0s-.09-.07-.09-.15 0 0 0 0a.64.64 0 0 1 -.11-.11.57.57 0 0 0 -.13-.12c.08-.1.25 0 .36-.05-.06-.15-.2-.23-.33-.33.09-.09.24 0 .36-.05a.15.15 0 0 1 0-.08.1.1 0 0 1 0-.05s.11 0 .15 0a2.57 2.57 0 0 1 .06.66.76.76 0 0 1 0 .2v.07s0 0 0 0a.16.16 0 0 0 0 0s0 0 0 0a.06.06 0 0 1 0 0v.37a4 4 0 0 1 -.68-.06c.12-.07.28 0 .4-.11m-.25-3.87s0 0 0 0a0 0 0 0 1 0 0zm.47.43c-.06-.06-.08-.17-.13-.24a.2.2 0 0 1 .06.08.57.57 0 0 1 .06.16m-.24-.08s0 0 0 0a0 0 0 0 1 0 0zm-.17 0a.06.06 0 0 1 0 0s0 0 0 0v.06s0 0 0 0m.66 1.08a1.13 1.13 0 0 1 0-.24s0 .19 0 .23m.17.06a.12.12 0 0 1 0-.05s0 0 0 0m.12.84a.16.16 0 0 1 .16 0 .17.17 0 0 1 -.16 0m-.18 0s0 0 .08 0 0 0-.08 0m-.83-.09s0-.06.08 0 0 .06-.08 0m-.07 0s0 0 0 0c0 .07 0 .07 0 .05m-.11.06a.06.06 0 0 1 0 0s.05 0 .06 0 0 .11 0 .09m.17.37a.07.07 0 0 0 0-.07c.07-.11.21-.08.32-.11s-.19.06-.2.11 0 0 0 0-.07 0-.13 0m-.33-.29s.07-.09.14-.08-.06.12-.14.08m0 .12s0 0 0-.07a.06.06 0 0 1 .06 0c0 .05 0 .09-.07.07m0 .21s0-.14 0-.19c.06 0-.07.1 0 .15s0 0 0 0m.54.34s-.09-.1-.12-.12 0 0 0 0l.06.06.06.06a0 0 0 0 1 0 0m-.13 0s0 0 0 0 0 .05 0 .08 0-.07 0-.09 0 0 0 0m-.2 0s0 0 0-.05 0 0 0 0m-.19-.1v-.09.06m.06.17a.07.07 0 0 1 0 0s0 0 0 0v.06s0 0 0 0m-.51.92a.9.9 0 0 1 0-.4 1.18 1.18 0 0 1 .06-.23 5.63 5.63 0 0 1 .2.81.06.06 0 0 0 0 0 0 0 0 0 1 0 0c0-.15-.05-.21 0-.34s0 0 0 0a.36.36 0 0 0 0 .16m.32.07c-.14-.08-.07-.32-.08-.5.11.11.29.38.16.5a.34.34 0 0 0 0-.07s0 0 0 .09m.84 1.54a1 1 0 0 0 .29-.4h.08.07s0 0 .07 0a.18.18 0 0 1 0 0c0 .21-.41.24-.49.52h-.1a1 1 0 0 1 0-.15.05.05 0 0 1 0 0c0-.16.08-.28.15-.28h.05a.64.64 0 0 1 0 .13s0 .07 0 .06a.12.12 0 0 1 0 .05c0 .06-.05.1-.08.16m.84-5.73h-.05m-2.37-1.44-.05.08.07-.11m2.35 5.75c-.05.24-.15.5-.27.45s0 0 0 .06a0 0 0 0 1 -.06 0c-.06 0-.05.11-.09.14a.05.05 0 0 1 0 0s0 0 0-.06a0 0 0 0 0 -.05 0s0 0 0-.07-.12.11-.21.08.07 0 .08-.06a0 0 0 0 0 0 0c-.08 0-.19 0-.24.07v-.06l-.06.06s0 0 0 0 0 0 0-.05c-.12.08-.33-.21-.51 0 0 0 0-.07 0-.08h-.08s0 0 0-.07 0 .14-.09.11 0 0 0-.07-.29 0-.4.14a.53.53 0 0 0 -.12.26c.09-.21.22-.35.41-.35a1.35 1.35 0 0 0 -.4.36l.39.22s0 0 0-.05c.49-.43 1.69.31 1.84-.67a1.39 1.39 0 0 0 0-.22m-.9.6s0 0 .08 0 0 0-.08 0m-2.21-2.29a.18.18 0 0 1 -.1-.09v.13a2.2 2.2 0 0 1 0 .27 2.69 2.69 0 0 1 0 .41v.18c-.05.34-.08.65.16.81 0-.26-.16-.35-.15-.6.22.15.09.53.33.83a4.66 4.66 0 0 1 -.23-1.76 1.56 1.56 0 0 1 .05-.23m4.32 2.53a5.08 5.08 0 0 0 -.33.52c.08 0 .11 0 .15-.07a0 0 0 0 1 0 0 .43.43 0 0 0 0 .05.1.1 0 0 0 0 0 .19.19 0 0 0 .11-.1l.07-.46m-.08.49a.19.19 0 0 1 0 0s0 0 0 0 0 .06 0 .08 0 0 0 0l.06.09.09.08.05-.35m-.32.14a1.59 1.59 0 0 0 .26.4v.16c-.09-.11-.18-.22-.27-.32m-.06 0c-.06 0-.11 0-.13 0a2.45 2.45 0 0 0 .42.47v-.06l-.12-.13a1 1 0 0 1 -.17-.33m-.18.06c-.1 0-.14.06-.23 0a8.37 8.37 0 0 0 .64.83 2.4 2.4 0 0 1 -.39-.77v-.08m-4.24-1.97v.14l.05.07a1.65 1.65 0 0 0 0-.22m3.66 2.17a.09.09 0 0 0 -.08 0h-.1a5.91 5.91 0 0 1 .36.54h.06c-.08-.19-.16-.39-.25-.56m-3.69-2v.09h.08a.4.4 0 0 0 -.06-.11m3.43 2a.42.42 0 0 0 -.23 0 1 1 0 0 0 .09.22l.29.16a2.41 2.41 0 0 1 -.15-.35m-3.26-1.74h-.06a.25.25 0 0 0 -.16.06l.34.19a.59.59 0 0 0 -.1-.17h-.05m7.27 4.21-.1-.05a7.42 7.42 0 0 1 -.38.83c-.12.22-.21.52-.41.57a8.92 8.92 0 0 0 .74-1.35 6.52 6.52 0 0 1 -.78 1.41.08.08 0 0 0 0 0h-.12a.08.08 0 0 1 0-.07s0 0 0 0a.07.07 0 0 0 0 0s0 .05-.06 0v-.05s0 0 0 0h-.08a.14.14 0 0 1 -.1 0 0 0 0 0 1 0 0 .07.07 0 0 1 0 0 .08.08 0 0 0 -.09 0s0-.09.09-.1-.06 0-.09.06a.06.06 0 0 1 0 0s.07-.08.08-.1 0 0-.05 0l-.2-.15a9.54 9.54 0 0 0 .79-1.41h-.06a5.47 5.47 0 0 1 -.9 1.44c0-.24.18-.31.27-.45a5.13 5.13 0 0 0 .55-1l-.09-.05v.08l-.07-.11-1.41-.79h-.16-.08l-.15-.11-.07-.06h-.07a1.71 1.71 0 0 1 .31.58l-.19-.08a1.08 1.08 0 0 1 -.2-.15v.17l.06.16h-.09l-.06.38a1.35 1.35 0 0 1 .46 1.12h-.08c-.09-.06-.06-.16-.11-.28v-.07a.83.83 0 0 0 -.24-.35v.07s0 0 0 0v.05a.37.37 0 0 0 .09.1h.06c0 .13.07.21 0 .36a.79.79 0 0 0 -.22-.42l-.05.35c.93.42 1.86.9 2.85 1.32.07-.08-.06-.25 0-.4a1.4 1.4 0 0 1 .17.58c-1-.43-2-.92-3-1.39v.12c1 .44 2.09 1 3.15 1.44a8.54 8.54 0 0 1 -.2-.84s0 .12.09.15 0-.12 0-.21a.13.13 0 0 1 0 .06.05.05 0 0 0 0 0c0-.1 0-.13 0-.23s.06.14.11.19a2.55 2.55 0 0 1 -.07-.35c.06.06.06.16.1.23 0-.13-.07-.17 0-.29s0 .05 0 .09a.15.15 0 0 0 0 .08.54.54 0 0 0 -.05-.24.29.29 0 0 1 0 .08.14.14 0 0 0 0 .07c0-.12-.06-.19 0-.31a.68.68 0 0 0 0-.11c.27.87.49 1.78.74 2.66a5.73 5.73 0 0 1 -.89-.36l.15.1.31.15a3.07 3.07 0 0 1 .32.15l.13.09c-.2-1.06-.57-2-.76-3 .36 1 .57 2.11.9 3.13h-.06l-.46-.19c-.54-.22-1.12-.47-1.7-.73l-.56-.26c-.41-.19-.81-.39-1.19-.6l-.25-.14-.12-.28v.15l.1.08a.25.25 0 0 0 .15 0c-.07.07-.16.08-.29 0l-.07.44a4 4 0 0 0 .8-.26c0 .1-.15.13-.25.17a3.52 3.52 0 0 1 -.57.19v.08l.39-.1a1.94 1.94 0 0 1 .71-.18c0 .07-.09 0-.13.08a.31.31 0 0 1 0 .2.34.34 0 0 1 0 .12 1.22 1.22 0 0 0 -.18-.17h-.1l.07.06h.07a.51.51 0 0 1 .06.27h.16a.76.76 0 0 1 -.08-.51.42.42 0 0 1 .16.09s0 0 0 0h.1a.1.1 0 0 1 0 0c.06 0 .06-.09.12-.05v.08h.05.09a.14.14 0 0 1 .1 0s0 .05-.05 0 0 0 .06 0a.07.07 0 0 1 .07 0s0 0-.06.08.09 0 .11-.06a1 1 0 0 0 0 .1l.1-.07c-.13.27-.53.34-.74.56.34-.11.57-.44.92-.52a4.08 4.08 0 0 1 -2.2 1v.1a3.8 3.8 0 0 0 1.92-.69c.16-.11.31-.34.47-.33a1.58 1.58 0 0 1 .55.22l.19.11.18.1.25.13 1.23.55c-.21-1.11-.63-2.31-.9-3.47m-3.24-.14a.06.06 0 0 1 0 0s0 0 0 0a.13.13 0 0 1 0 .05s0 0 0 0m-.32 1.96s.11 0 .16 0-.11 0-.15 0m-4-5.91-.22.17h-.05-.07-.11a.74.74 0 0 1 -.56.03h-.06l-.15-.09a1.3 1.3 0 0 1 .82-.31l-.16-.09a.75.75 0 0 1 -.72.08.84.84 0 0 1 -.22-.2c0-.1.16-.11.27-.06l.09.07c0 .11-.06 0-.1 0l.08.05c.2.11.37 0 .57 0l-.21-.12a1.52 1.52 0 0 1 -.58-.19l-.27-.18v-.08l-.36-.23q-.71 1.07-1.39 2.17a.09.09 0 0 0 0 .05h.07.07a.08.08 0 0 1 0 .06c0 .05-.07 0-.13 0h-.06a.42.42 0 0 0 -.13-.06c.46-.82 1-1.55 1.46-2.29-.51.76-1 1.54-1.51 2.31a.36.36 0 0 0 .15.14h.08.09a.51.51 0 0 1 .1.1h-.13a.07.07 0 0 0 0 0h.06.07s-.15 0-.05.08h.1s-.12 0-.15-.05a.28.28 0 0 0 .06.08h.05.05s-.16-.07-.21-.08l.08.07h.09s-.13 0-.18 0h.07.07s-.13 0-.17-.06a0 0 0 0 0 0 .05h.39s0 0-.07 0h-.05s0 0 .07.07l.12.06h.09s0 0 0 0l-.16.7-1.72-.77c.65-1 1.3-2 2-3h-.07l-2 3.06.15.09a6.48 6.48 0 0 0 .88.39 6.84 6.84 0 0 1 .9.4l.17.1s0 .08 0 .07c-.75-.35-1.5-.67-2.23-1q1-1.62 2-3.2h-.08a.36.36 0 0 1 0 .06.24.24 0 0 1 -.05-.14 1.09 1.09 0 0 1 0 .22.62.62 0 0 1 0-.26v.05a1.73 1.73 0 0 0 0 .36.56.56 0 0 1 0-.25.17.17 0 0 1 0 0 .09.09 0 0 0 0 .07v.28a1.27 1.27 0 0 1 0-.31.1.1 0 0 0 0 .06v.31a.67.67 0 0 1 -.05-.27.07.07 0 0 0 0 .05 1.6 1.6 0 0 0 0 .26s0-.19 0-.25a.14.14 0 0 0 0 .08v.37c0-.37-.06-.72-.08-1.07l-.09-.05a11.15 11.15 0 0 0 -.24 1.24 7.8 7.8 0 0 1 -.13-1.29c0 .47 0 .91.09 1.38-.22.41-.5.75-.75 1.13a6.5 6.5 0 0 0 -.68 1.2l1.18.53c.32.14.7.23 1 .4a1.23 1.23 0 0 1 .2.14 3.76 3.76 0 0 1 .37.67 11.12 11.12 0 0 0 1.45 2.15v-.1a10.26 10.26 0 0 1 -2.39-4.62l.14.43a11.57 11.57 0 0 0 2.27 4.1v-.06a10.53 10.53 0 0 1 -2.29-4.44v-.09c.06.05 0 .18.11.23a2.51 2.51 0 0 1 -.07-.35c.07.07.07.22.12.31 0-.15-.07-.24-.06-.39.1.07.06.24.15.32a1.46 1.46 0 0 1 -.06-.39c.06.11.06.26.14.35a2.93 2.93 0 0 1 -.11-.48c.08.09.07.26.14.35 0-.13-.05-.27-.09-.4s.06.17.09.26v.06c0-.13-.05-.27-.09-.4a.08.08 0 0 1 0 0c0 .07 0 .2.08.23a1 1 0 0 0 0-.15 12.4 12.4 0 0 0 2 4.12v-.12a9.32 9.32 0 0 1 -1.42-2.41 6.52 6.52 0 0 1 -.55-2 10.16 10.16 0 0 0 2 4.31l.11-.72-.82-.37s-.05-.06 0-.12l.87.39-.9-.4c0-.07.11 0 .13 0a.08.08 0 0 0 0-.06h-.07-.06s.06 0 0-.06h-.06s0-.06.08 0a.06.06 0 0 0 0-.06h-.06-.06c.1 0 .07-.07 0-.12s0 0 .07 0h.05a.83.83 0 0 0 -.24-.18s0 0 .07 0h.05a.27.27 0 0 0 -.12-.12h-.07c-.07-.09.11 0 .15 0a.09.09 0 0 0 0-.06h-.08-.07c0-.06.19 0 .25 0a.11.11 0 0 0 -.06-.07h-.08-.08c.41.16.91.37 1.41.59v-.09l-1.74-.97s0-.06 0-.06c.52.26 1.08.49 1.64.73l.2-1.27a1 1 0 0 1 -.28-.11.16.16 0 0 1 0 0s0 0 0-.08a.24.24 0 0 0 0 0c.09 0 .13.09.2 0s0 0 0 .05h.17v-.16a.84.84 0 0 1 -.68-.1 1 1 0 0 1 .75-.56v-.22m-2.69.32-.02-.1a.89.89 0 0 1 .05.17m5.94-11.33c-.54.64-1 1.5-1.51 2.15l-.35-.05v.06a5.3 5.3 0 0 1 1.69.51 5.45 5.45 0 0 0 -1.7-.42v.07a4.31 4.31 0 0 1 1 .21 3.35 3.35 0 0 1 .61.25l.09.06s-.07 0-.08 0h-.12a.41.41 0 0 0 .16.15s-.06 0-.1 0 .13.07.11.18h-.07c0 .07.1.08.14.14s-.06 0-.1 0 .1.13.1.14h-.09a.25.25 0 0 0 .11.12s-.06 0-.1 0a.18.18 0 0 0 .07.07h.05a.05.05 0 0 1 -.07 0l-.06-.05-.07-.06c0-.29-.14-.4-.19-.73-.18 0-.25.32-.38.48a4.29 4.29 0 0 0 -1.17-.12 4.54 4.54 0 0 1 1.29.24c-.14.11-.33 0-.48 0a3.82 3.82 0 0 0 -.83-.1v.14-.05a.06.06 0 0 1 0 .05s-.05.1-.06.14.09-.19.19-.16 0 0 0 0 0 0 0 .07.08-.1.1-.11a.06.06 0 0 1 0 0s-.05.07-.06.11.05 0 .08-.09a.09.09 0 0 1 0 .07s-.06.09-.07.13.1-.12.15-.18a0 0 0 0 1 0 0s0 .08-.06.08.1-.09.12-.14a.08.08 0 0 1 0 .06c0 .06-.08.1-.09.16s.12-.13.17-.21a.07.07 0 0 1 0 .06c0 .06-.08.1-.09.16s.1-.1.14-.15c-.29.51-.61 1-.95 1.54.37-.55.74-1.09 1.12-1.61a5.64 5.64 0 0 1 -.64 1.11l-.37.56.53.3a.77.77 0 0 1 1.07-.38l.13.06a2.51 2.51 0 0 1 1 1.57l.45.25c-.44-1.57-.87-3.14-1.3-4.68 0 0-.14.16-.18.14s0 0 0 0 .12-.16.16-.29q.72 2.45 1.42 4.92h.07l-1.4-5c-.17 0-.18.33-.34.35a.29.29 0 0 1 0 0s0 0 0-.09a.15.15 0 0 0 0 0c-.07 0-.07.15-.15.11s0 0 0-.08-.06.07-.09.1a0 0 0 0 1 0-.05s0-.08.06-.08-.05 0-.08.05v.05s0 0 0 0 0-.05.06-.1a.07.07 0 0 0 0 0c-.06 0-.09.1-.14.15s0-.09 0-.08-.06 0-.08.06a.05.05 0 0 1 0 0s.06-.08.06-.11-.11.08-.14.15a.06.06 0 0 1 0 0s.06-.08.06-.11-.09.1-.14.15c.29-.6.77-1.14 1.12-1.75.67 2.26 1.31 4.68 2 7q-1-3.55-2-7.13a4.38 4.38 0 0 0 -.68.91 2.78 2.78 0 0 1 -.67.88c.43-.72.9-1.36 1.35-2 .7 2.48 1.39 5 2.08 7.43h.06l.39-1.58a10.1 10.1 0 0 0 -.88-1.17s0-.07 0-.09a.11.11 0 0 1 0 0s0 0 0 0a10.57 10.57 0 0 1 .91 1.19v-.08a11.83 11.83 0 0 0 -1-1.26c0-.11-.14-.14-.18-.22s.07 0 .1 0-.1-.1-.14-.17 0 0 0 0c0-.11-.15-.17-.23-.25s0 0 0 0h.08c0-.1-.12-.11-.16-.18h.06c0-.11-.16-.14-.21-.24s0 0 0 0c0-.11-.15-.15-.21-.24s0 0 0 0h.05a.75.75 0 0 0 -.19-.19 8 8 0 0 1 2.17 1.9v-.07a9.6 9.6 0 0 0 -1.54-1.66 5.45 5.45 0 0 1 1.56 1.54v-.08a8.85 8.85 0 0 0 -1.58-1.61c-.33-1.08-.59-2.21-.93-3.28m-.84 4.43a.55.55 0 0 1 -.12-.12.71.71 0 0 0 -.13-.12c.2-.43.45-.71.67-1.1.15.17.1.36.07.64 0 0 0 0 0-.05s0-.13 0-.19a.9.9 0 0 1 .05.52s0-.25 0-.28a.24.24 0 0 0 0 .09v.47.08a.51.51 0 0 1 0-.17s0 0 0 .07 0 .18 0 .24a.92.92 0 0 1 0-.12.31.31 0 0 0 0-.13.66.66 0 0 0 0 .11s0 0 0 0a.07.07 0 0 1 0 .06v.1a.33.33 0 0 0 0 .06.16.16 0 0 0 -.08 0 .18.18 0 0 1 -.11 0 .39.39 0 0 0 .15.14 1.2 1.2 0 0 0 .35.12h-.08a1.59 1.59 0 0 1 0 .43c-.07-.11 0-.33-.06-.46h-.05s-.07 0-.08 0a.32.32 0 0 1 .08.18v.2h-.16-.08-.1a.5.5 0 0 1 0-.12c0-.11.06-.18.07-.26a.35.35 0 0 0 0-.12.05.05 0 0 1 -.08 0m.26-1.47v-.07.06m.08.32a1.08 1.08 0 0 1 0-.17v.09a.49.49 0 0 1 0 .06m0 .23s0 0 0 0v-.1a1 1 0 0 1 .05.12 0 0 0 0 1 0 0m.19.1a.12.12 0 0 1 -.07-.1.15.15 0 0 1 .13 0 .22.22 0 0 1 .13.2.14.14 0 0 0 -.06-.06h-.06-.06m-.09.1v-.05.1m-.24 0a.2.2 0 0 1 0-.07v-.16a.09.09 0 0 1 0 0s0 0 0-.06v.06c0 .07 0 .12 0 .11m0 0s0 0 .08 0 0 0-.08 0m0 .13c-.06 0 0-.09 0-.07 0 .14.08.13 0 .17s0-.1 0-.15 0 0 0 0m-.16.14a1.13 1.13 0 0 1 0-.24s0 .19 0 .24zm.38.34a1.57 1.57 0 0 1 0-.21v.07.07a.9.9 0 0 1 0 .22m-.22-.07s0-.25 0-.33 0 .25 0 .33zm.06 0s0-.07 0-.1 0 .08.05.1 0 0-.08 0m-.24 1.09a.12.12 0 0 1 -.09 0l-.07-.06-.09-.07h-.11a.06.06 0 0 0 0 0s-.05 0 0-.07 0 0 0 0a.47.47 0 0 1 0 0 .15.15 0 0 1 0-.09v.06s0 0 0 0v-.09c0 .05 0 .13-.09.14s0-.08 0-.1 0 0 0 0 0 .07 0 .11 0 0 0 0a.25.25 0 0 0 0 .06l.21.12a.13.13 0 0 0 0-.07h.06a.6.6 0 0 1 .26 0h.06.09a1.6 1.6 0 0 1 .55.58h.05s0-.11.06-.13h-.06-.05v-.07a.71.71 0 0 0 -.25-.27.12.12 0 0 0 -.11 0v-.1m0 .2h-.06a.57.57 0 0 0 -.46 0h.09l.07.07.28.16v-.12.23l.4.22a.83.83 0 0 0 -.33-.41h-.05m4.85 3h-.07a10.91 10.91 0 0 1 .27 4.6 8.2 8.2 0 0 1 -.75 1.59l.1.05v-.05a10.87 10.87 0 0 0 .17-6.29m-.93-.52h-.08a9.89 9.89 0 0 1 .53 3.81 7.41 7.41 0 0 1 -.56 2.6h.06a6.6 6.6 0 0 0 .47-1.64v-.07a9.64 9.64 0 0 0 -.45-4.71m-.19-.11-1.21-.68v.11l1.15 4.13a8.27 8.27 0 0 1 .42 1.69q-.81-2.8-1.6-5.62c.54 1.91 1.08 3.83 1.56 5.77 0 0 0-.08-.07-.1s0 .13 0 .23a.08.08 0 0 1 0-.05s0 0 0-.05a1.44 1.44 0 0 1 0 .27s0-.08-.07-.1 0 .08 0 .14a.06.06 0 0 1 0 0c-.06 0 0-.13-.09-.18 0 .12.06.18 0 .31-.06 0 0-.13-.08-.18a.53.53 0 0 0 .05.24.2.2 0 0 1 0-.06.14.14 0 0 0 0-.07c0 .12.06.19 0 .31 0 0 0-.11-.09-.15a1.33 1.33 0 0 1 .05.27q-.75-2.63-1.49-5.27v.14q.72 2.59 1.42 5.2l.09.05a8.76 8.76 0 0 0 .5-4.3 9.93 9.93 0 0 0 -.52-2.14m-6.23-3.51h-.08c-1 1.54-2.06 3.11-3.09 4.69h.07c1-1.57 2.07-3.12 3.1-4.68m-.15-.08-1.11-.62a5.44 5.44 0 0 0 -1.81 3.63c-.07.51-.06 1-.12 1.49a7 7 0 0 1 .65-3.54 4.76 4.76 0 0 1 1.18-1.55 5.36 5.36 0 0 0 -1.77 3.45 14 14 0 0 0 -.13 1.84c-.06-.06 0-.2 0-.31a.12.12 0 0 0 0 .07 2.06 2.06 0 0 0 0 .27h.08q1.54-2.37 3.12-4.68m-2-1.12a8 8 0 0 0 -1.79 5.42l.09.05a9.35 9.35 0 0 1 0-1.8v-.09a6.57 6.57 0 0 1 1.61-3.55m-.14-.08a6.51 6.51 0 0 0 -1.64 3.65 11.62 11.62 0 0 0 -.11 1.8 11.2 11.2 0 0 1 .15-1.73 6.8 6.8 0 0 1 1.61-3.7m2.85 1.7c-.73 1.12-1.54 2.25-2.24 3.37.77-1.06 1.49-2.22 2.24-3.33" fill="#231f20"/><path d="m17.88 26.33c-1 1.43-1.94 2.86-2.9 4.33l.37.21c0-.07.08-.12.18-.07s0 .06 0 .08c.42.14.91.37 1.26.24l-.07-.05c-.2-.1-.43.07-.7 0h-.02l-.18-.12-.17-.12a.3.3 0 0 0 -.21 0c.1-.33.3-.3.53-.17l.26.16.26.16a.73.73 0 0 0 .24.09 1 1 0 0 0 -.15-.35v.06a.54.54 0 0 0 .07.17.33.33 0 0 0 0-.08 1 1 0 0 0 -.16-.59s0 0 0 0a.35.35 0 0 0 0 .15c-.09-.06 0-.13-.12-.23a.12.12 0 0 1 0 .09s0 0 0 0 0 0 0-.08a.7.7 0 0 0 .11.33c-.18-.16-.27-.63-.43-.8a.14.14 0 0 1 0 0c0-.05 0-.07.08 0s0 .21.12.38h.06s0 0 0 0a.25.25 0 0 1 0-.06.14.14 0 0 1 0 0v.07a2.78 2.78 0 0 0 0-.51.06.06 0 0 0 0 0v.25a.63.63 0 0 1 -.11-.47.08.08 0 0 1 0 .05c0-.09 0-.2 0-.3a.66.66 0 0 1 .09-.29 6.32 6.32 0 0 0 .21 1.81.65.65 0 0 0 0 .38c.07-.4-.21-.93-.19-1.51a3.13 3.13 0 0 1 0-.37 5.5 5.5 0 0 1 .17-.69 3.45 3.45 0 0 1 .23 1.1 2.21 2.21 0 0 1 0 .31c0 .21-.09.43-.12.64a1.2 1.2 0 0 0 .08.78s0 0 0 0v-.05a.2.2 0 0 0 -.06-.07h-.05a1.05 1.05 0 0 1 -.61.11l.21.12.16.09a2 2 0 0 1 .46 0v-.09a.27.27 0 0 0 -.15 0 .23.23 0 0 1 -.2 0 .09.09 0 0 1 -.06-.1.36.36 0 0 0 .22 0h.06a.19.19 0 0 1 .11 0v-.14a2.34 2.34 0 0 1 -.13-.85.67.67 0 0 1 0-.14.32.32 0 0 1 0 .22s0 .07 0 .07 0 .05 0 .1a1.63 1.63 0 0 0 0 .18c0-.16 0-.59 0-.85v.06a5.54 5.54 0 0 1 0-.82 8.49 8.49 0 0 1 .2.9v-.13a.63.63 0 0 1 0-.47l.07.13.53-3.39m-1.08 3.81c-.08-.18-.19-.3-.16-.5h.1c0 .17.11.35.06.46m.65.28v-.09zm-.94-.16c.09-.08-.11-.06-.08-.25h.06c.1.05.1.18.17.26s0 0 0 0a0 0 0 0 0 0 0m-.23.04s0 0 0-.07a.26.26 0 0 1 0-.1.47.47 0 0 1 .2.31l-.17-.08v-.13s-.05 0-.06.08m.24.11a.06.06 0 0 1 .08 0 .39.39 0 0 1 .11.11 1 1 0 0 1 .11.19.52.52 0 0 1 0 .09.78.78 0 0 0 -.12-.16s0 0 0 0a.61.61 0 0 0 -.11-.16.13.13 0 0 0 0 0m-.34.1c-.07-.06 0-.1 0-.18.1.06.14.14.28.23s0 .06-.07 0 0 0 0 0 0-.12 0-.15 0 .06-.07.08m.49.29a.46.46 0 0 1 -.16-.22h.06a.67.67 0 0 1 .25.21.25.25 0 0 1 -.14 0m.17.07s0-.05 0 0l.08.06s0 0-.05 0m8.5.68a10.74 10.74 0 0 1 .05 1.55 11.14 11.14 0 0 1 -.12 1.29 7.83 7.83 0 0 1 -.45 1.7 7.63 7.63 0 0 0 .46-1.76 10.85 10.85 0 0 0 0-2.8m-2.82-1-.16 1 .09-.08c.09.11 0 .39 0 .57h-.31a.07.07 0 0 1 .05 0s0 0 0 0h-.05s0 0 0 .05h.08a.21.21 0 0 1 0 0c0 .18-.11.24-.14.41 0-.12 0-.33 0-.49a2.37 2.37 0 0 1 -.28.53l-.07.46c.09-.15.12-.44.23-.54.06-.1.09-.33.15-.39a0 0 0 0 1 .05 0l.06.07s0 0 0 0h-.12c0 .07.11.07.09.16s0 0 0-.05c0 .16-.21.33-.31.31a.18.18 0 0 1 0 .08s-.05 0-.09 0a.1.1 0 0 1 0 .08c0 .09-.15.19-.21.25l-.05.35a.93.93 0 0 0 .44.08 1 1 0 0 1 .44.09l.07.05a.69.69 0 0 1 .19.27c-.25 0-.48.14-.77 0l.24.27a1.42 1.42 0 0 1 -.39-.36v.08a1.62 1.62 0 0 0 .32.28h.07a.55.55 0 0 0 .5 0 .51.51 0 0 1 .13.11l.07.07h.05a.61.61 0 0 1 -.67.09.54.54 0 0 0 0-.09.26.26 0 0 0 -.06-.11h-.05s.11 0 .14.05a.12.12 0 0 0 -.11-.02h-.07-.1s0 0 .05 0a3 3 0 0 1 -.37-.27v.06a3 3 0 0 1 .73.8h-.21l1.41.79a3.34 3.34 0 0 1 -.17-.61l-1.23-4.4m-.26 2.66a.13.13 0 0 1 0-.05c0-.09.14-.11.16-.25a.18.18 0 0 0 0 0c.1 0 .25-.24.31-.21a.24.24 0 0 1 0 .14s0 0 0 0a.13.13 0 0 0 0 .09c-.05 0-.09.06-.13.06s0 .07 0 .13.18-.12.31-.07a.31.31 0 0 1 0 .17s-.09 0-.14 0a.21.21 0 0 1 -.16 0c-.08 0 .05.29 0 .25 0 .12.14.09.14.21a.11.11 0 0 1 0 0c0 .06-.08 0-.09 0a.23.23 0 0 0 0 .06h-.05c-.06 0-.11 0-.18 0s.2 0 .27-.13a.17.17 0 0 0 -.09-.11c-.12.09-.2 0-.24.11a.19.19 0 0 1 0-.08c0-.12.2-.06.24-.17s-.11 0-.13 0m.35.08c0-.15.21-.11.33 0h.05s0 .09 0 .14 0 0 0 .08-.13-.13-.18-.16a.06.06 0 0 0 -.08 0m.06.21c0-.06.17-.06.28 0a.21.21 0 0 1 .11.22s0 0 0 0 0 0 0 .06a.37.37 0 0 0 -.14-.12h-.07-.05m-.55 0a0 0 0 0 1 0 0s0 0 0 0m-6-4c-.28.39-.55.79-.82 1.19.27-.4.53-.79.79-1.21m-2.08.14a.12.12 0 0 0 0 .07.37.37 0 0 0 0 .08 1 1 0 0 1 0-.16m7.52 4.33.06.08h.07l-.13-.14m-.52-.11v-.06a5.63 5.63 0 0 1 .41.81v-.17a1.87 1.87 0 0 1 -.37-.6m-.37-.21-.29-.16c.15.25.39.39.54.64s.16.57.33.79h-.07-.09l-.15-.1a2.61 2.61 0 0 1 -.6-1c0 .13.16.39.16.44s0-.21-.11-.26a2 2 0 0 0 .1.33.14.14 0 0 1 .1 0h.05a2.23 2.23 0 0 1 .21.46h-.07l-.08-.05a2.32 2.32 0 0 1 -.7-1.13c0-.11-.07-.21-.11-.31l-.15-.07v-.06l-.21-.12a1.21 1.21 0 0 1 .38 1v.11c-.15 1-1.22.3-1.81.51.32-.41 1.17.33 1.47-.13s0 0 0 0a.9.9 0 0 0 .29-.49.64.64 0 0 0 0-.2s0 0 0 0 0 .12 0 .16-.07.15-.13.22.09-.1.1-.09a1 1 0 0 1 -.15.22v-.06s0 0 0 0 0 .12 0 .1 0 0 0-.05 0 0-.05.05a.1.1 0 0 1 0 .05s0 0 0-.05 0 0 0 0l-.07-.05a1.15 1.15 0 0 0 -.34-.09h-.07a.86.86 0 0 1 -.25-.07l-.06-.06a1 1 0 0 0 -.32 0h-.09a.17.17 0 0 1 -.06-.07c0 .1 0 .16 0 .14a.1.1 0 0 1 0-.07s0 .07 0 .11 0 0 0 0 0-.07-.05-.09c0 .06-.07.06-.07.11a.2.2 0 0 0 0 .08c-.1 0-.26 0-.42-.12.26-1 1.25-.49 1.95-.59a2.93 2.93 0 0 1 0-.82c0 .27 0 .58-.05.82a3.22 3.22 0 0 1 0-.85h-.09c0 .23 0 .54-.07.86-.11 0-.27 0-.4-.07a1.61 1.61 0 0 1 0-.24c0-.18.08-.36.1-.53 0-.05 0-.13 0-.2a2.24 2.24 0 0 1 -.07.3.27.27 0 0 1 -.1-.17c0-.07 0-.13-.08-.16h-.07a.47.47 0 0 0 .11-.09l-.39-.22a1 1 0 0 0 0 .33v-.07s0 0 0 .08 0 .06 0 .06a3 3 0 0 0 .1.34c.12.17.29.3.41.47a1.55 1.55 0 0 1 -.62-1.26l-.14-.08s.07.08.07.15h-.1c-.25.32-.46.71-.9.62l-.2 1.27a16.17 16.17 0 0 1 .91.65l.23.14-1.79-.81v.09c.63.28 1.27.59 1.82.86 0 .3.11.59 0 .77l-1.89-.85 1.89.85c-.18.12-.43-.09-.65-.18l-1.26-.57-.11.72a7.5 7.5 0 0 0 2.08 1.74l-.52-.21a6.05 6.05 0 0 1 -1.66-1.42v.12a6.06 6.06 0 0 0 1.66 1.47h.08c.09 0 .19.07.28.12a.31.31 0 0 1 .12.13 4.17 4.17 0 0 0 2.29.2v-.08a3.1 3.1 0 0 1 -2.23-.3 4.14 4.14 0 0 0 2.24.2l.07-.44a.29.29 0 0 1 -.11-.12.85.85 0 0 1 -.07-.49.64.64 0 0 1 0-.14s0 .15 0 .21 0 0-.05 0a1.6 1.6 0 0 0 .1.29s0-.07 0-.11a.5.5 0 0 0 .11.15v-.15l-.1-.06s0 0 .08 0a.06.06 0 0 0 0 0h-.06s0 0 0 0a.91.91 0 0 0 -.1-.29c-.08 0-.09.14-.13.23l-.29-.13a.11.11 0 0 0 0 .06h.09.1c-.06.06-.21 0-.35-.07l-.21-.14a.12.12 0 0 1 .16-.07.13.13 0 0 1 0-.07s0-.06 0-.1a.13.13 0 0 0 0-.07s0 0 0 0h.08a0 0 0 0 0 0 0 0 0 0 0 1 0 0s0 0 0 0a.07.07 0 0 0 0 0s0 0 0 0 0 0 .06 0a.21.21 0 0 1 0-.1c0-.05 0-.05.06-.11l.59.24v-.12l-.52-.26c.12-.08.33.08.52.16l.05-.35-.09-.07a.35.35 0 0 0 -.21 0c-.57.16-.91 2.2-1.71 1.84.06-.12.35-.07.48-.18a.1.1 0 0 1 0 0s.06-.05.06-.08 0 0 0 0c.25-.13.45-.73.64-1.11a.51.51 0 0 1 0-.05.59.59 0 0 1 .8-.34v-.05h-.05a0 0 0 0 1 .06 0h.06v-.07h-.06c-.39-.18-.89.15-1.11.59a1.14 1.14 0 0 0 -.07.17.45.45 0 0 1 0 .08.74.74 0 0 1 -.2.43 0 0 0 0 1 0 0s0 0 0 0a.93.93 0 0 1 -.87.29.88.88 0 0 1 0-.11c0-.21.19-.11.3-.15l.12-.06h.06c.57-.49.68-2 1.71-1.49l.13.08.06-.38a.66.66 0 0 1 -.11-.1.66.66 0 0 0 -.11-.1 5.51 5.51 0 0 0 -.47-.93m-2.38-.99s0 0 0-.05 0 0 0 0m1.86 1.62c-.11-.25-.08-.44-.19-.69.19.17.18.77.47 1a1.16 1.16 0 0 1 0 .33 1.2 1.2 0 0 0 -.25-.29s0-.12 0-.15a.07.07 0 0 0 -.06 0c.07-.09-.07-.22 0-.38 0 .07 0 .17.11.23m-2.59-1.81c.08-.07.22 0 .33 0v.06h.06c-.1.42-.45.33-.64.57-.15-.08-.25 0-.4-.11l.4-.49a.45.45 0 0 0 .36-.08 1.77 1.77 0 0 1 .35-.19c-.08 0-.12 0-.18 0m1 .27h.06-.07m-1.33.55-.1-.06a4.87 4.87 0 0 1 .91-.49s0 0 0 0-.08 0-.08.05 0 0 0 0c0 .05.06.06 0 .13s0 .08-.07.08a.37.37 0 0 0 .34-.1.19.19 0 0 1 0 .09s-.06 0-.11 0 0 0 0 0h.06a.54.54 0 0 1 -.83.33h-.08m.93 0a1 1 0 0 1 0-.23h.16s0 0 0 .07 0 0 0 0a.25.25 0 0 0 -.15.19m-.09.1c.13 0 .19-.23.33-.25.06.29-.2.23-.33.25m2 1.24c-.07 0-.14-.13-.19-.16s.06 0 .06 0 0 0 0-.11.05-.17.1-.24c.09.16.06.41.18.54h-.1m-2.4-1.15s.08 0 .12-.07a.15.15 0 0 1 .21 0c-.16.07-.27.24-.5.17.06-.09.12-.19.24-.14a.09.09 0 0 1 0 0c0 .06-.06 0-.08 0m3.28 1.85s0 0-.05 0 0 0 .05 0zm-1.92-1s0 0 .08 0 0 0-.08 0m-.58-.18s0 0 0-.07 0 .08 0 .07m.23.15a.05.05 0 0 1 0 0s0 0 .06 0a0 0 0 0 1 -.06 0m-.41-.16s0 0 0 0 .1 0 .14 0-.08 0-.13 0m.44 1.49c.14-.05.21-.27.25-.53s0-.29.05-.45a.93.93 0 0 1 0 .37 2.46 2.46 0 0 1 -.2.62c0 .13.07.23.09.36a2 2 0 0 1 0 .26 4.31 4.31 0 0 1 -.31.84.13.13 0 0 1 0 0s0 0 0 0c.08-.3.26-.58.31-.9a1 1 0 0 0 0-.36 3.74 3.74 0 0 0 -.34 1 2.14 2.14 0 0 0 0 .44v-.06.08a2.65 2.65 0 0 0 0 .32 3.3 3.3 0 0 1 -.23-1.29 2.75 2.75 0 0 1 0-.3c0-.21.1-.39.22-.38a3.48 3.48 0 0 1 -.07-1.11h.08l.07.06c.08.09.14.23.2.31a.66.66 0 0 1 0 .14c0 .11-.06.23-.06.28s0 0 0 0v.06c0 .08 0 .08-.14.13s0 0 0 .09m1.58 0a.08.08 0 0 1 0-.06s.1-.06.11-.12a0 0 0 0 1 0 0s-.09.07-.1.13m-1.23-.55a.93.93 0 0 1 .52.15.8.8 0 0 1 .24.19 7.11 7.11 0 0 1 -.76-.34m-.08.36s0 0 .08 0a.07.07 0 0 0 0-.09c0-.05.15 0 0-.06.16-.08.47.18.69.24a5.16 5.16 0 0 1 -.38.76l-.36-.1s0 0 .05 0 0 0 0-.06 0 0 .08 0 0-.08 0-.07a.06.06 0 0 0 0 0h-.13s.06-.08 0-.11 0 0 .08 0a0 0 0 0 0 0 0s.15 0 .07-.07 0 0 .08 0 0-.14.06-.08a.05.05 0 0 0 0 0m-.14-.28s0 0 0-.06 0 0 0 .06h-.05m.69 1.24s0 0 0 0 .06 0 .06-.08 0 0 0 0-.05.06-.06.09m-1.91-.7c0-.17 0-.21.09-.17a1.79 1.79 0 0 1 .33.4v.29h-.06a.54.54 0 0 1 -.19-.25.51.51 0 0 0 -.14-.22m.34 1-.09-.06a2.24 2.24 0 0 1 -.79-1.2v-.1-.14l.15.07a.2.2 0 0 1 .1.12s0 0 0 0 .06.07.06.15a.29.29 0 0 0 0 .09.25.25 0 0 0 .07.14s0 0 0 0v.07.08a1.86 1.86 0 0 0 .69.85h.08l-.15-.07m-.81-1.36s0 0 0 0a0 0 0 0 1 0 0zm.06.18s0 0 0-.05 0 0 0 0m0 .09a.12.12 0 0 1 0-.05s0 0 0 0m1.37.89s.06 0 .1 0-.08 0-.06.12h-.1s0-.07 0-.1 0 0 0 .08 0-.05 0-.07m-.9-.47a.13.13 0 0 1 0-.05s0 0 0 0a.06.06 0 0 1 0 0s0 0 0 0m-.43-.17a.06.06 0 0 1 0 0s0 0 0 0v.05s0 0 0 0m.07.14a.16.16 0 0 1 0-.06s0 .08 0 .07m-.3-4.6-.37-.19v.19h.38m.1.06-.16.2a1 1 0 0 1 -.4.29v.16a1.76 1.76 0 0 0 .49-.12s0 0 0 0h-.09s0 0 0 0a.09.09 0 0 0 0-.05s0-.07 0-.13a.11.11 0 0 1 0 0 .32.32 0 0 0 .39-.07.13.13 0 0 0 -.07-.07m-.3.44s0 0 0-.07 0 .08 0 .07m-.06.15a0 0 0 0 1 0 0s.08-.08.1-.1a.1.1 0 0 1 0 .07s-.1 0-.11.07m3.84 4.91a.05.05 0 0 0 0 0zm-.27 1.76a4.23 4.23 0 0 1 -2.49-.57l-.11-.06h-.05a7.91 7.91 0 0 1 -1.84-1.45v.1a6.79 6.79 0 0 0 1.75 1.44l.51.26a4.57 4.57 0 0 0 2.22.41v-.1m-4.46-2.26v.06a7.07 7.07 0 0 0 1.71 1.39h.05a6.43 6.43 0 0 0 1.34.56h.12-.09a7.14 7.14 0 0 1 -1.3-.56h-.08a7.43 7.43 0 0 1 -1.78-1.45" fill="#231f20"/><path d="m16.43 29.45a.13.13 0 0 0 0 0" fill="#231f20"/><path d="m20.21 21.26c-.35.61-.83 1.15-1.12 1.75 0 0 .07-.15.14-.15s-.05.07-.06.11a.06.06 0 0 0 0 0c0-.07.08-.14.14-.15s-.06.07-.06.11a.05.05 0 0 0 0 0s.06-.07.08-.06-.07.06 0 .08.08-.13.14-.15a.07.07 0 0 1 0 0s-.05.07-.06.1 0 0 0 0v-.05s.06-.06.08-.05-.05 0-.06.08a0 0 0 0 0 0 0s0-.08.09-.1 0 0 0 .08c.09 0 .08-.12.15-.11a.08.08 0 0 1 0 0s0 0 0 .09a.31.31 0 0 0 0 0c.16 0 .17-.36.34-.35q1.75 6.28 3.52 12.54a1.33 1.33 0 0 0 -.05-.27c.05 0 0 .12.09.15 0-.12-.05-.18 0-.31s0 0 0 .07a.17.17 0 0 0 0 .06.53.53 0 0 1 -.05-.24c0 .05 0 .15.08.18 0-.12-.06-.18 0-.31 0 .05 0 .14.09.18a.08.08 0 0 0 0 0c0-.06 0-.12 0-.14s0 .08.07.1a1.44 1.44 0 0 0 0-.27.09.09 0 0 1 0 .05.08.08 0 0 0 0 .05c0-.1 0-.13 0-.23s0 .07.07.1c-.52-2.1-1.11-4.18-1.7-6.24-.67-2.34-1.31-4.76-2-7" fill="#fff"/><path d="m20 23.57a3.26 3.26 0 0 0 -.61-.25c-2.68-.89-5.18 1-5.76 4.59v.09a10.73 10.73 0 0 0 0 2.89c0-.12 0-.26 0-.37a.13.13 0 0 1 0-.08v.25a1.67 1.67 0 0 1 0-.26.07.07 0 0 1 0-.06.67.67 0 0 0 .05.27c0-.1 0-.23 0-.31a.09.09 0 0 1 0-.06 1.27 1.27 0 0 0 0 .31c0-.09 0-.21 0-.29a.09.09 0 0 1 0-.07.16.16 0 0 0 0 0 .56.56 0 0 0 0 .25 1.78 1.78 0 0 1 0-.36.11.11 0 0 1 0-.06.66.66 0 0 0 .05.27c0-.09 0-.21 0-.3a.11.11 0 0 1 0-.07.43.43 0 0 0 0 .31c0-.11 0-.24 0-.33a.13.13 0 0 1 0-.07v.31a14 14 0 0 1 .13-1.84c.53-3.36 2.84-4.86 5.37-4 .13-.15.2-.44.38-.48.05.33.16.44.19.73l.07.06.06.05a.05.05 0 0 0 .07 0h-.05a.19.19 0 0 1 -.07-.07s.09.05.1 0a.25.25 0 0 1 -.11-.12h.09s-.1-.07-.1-.14.09.05.1 0-.12-.07-.14-.13h.07c0-.11-.11-.08-.11-.18s.09.05.1 0a.42.42 0 0 1 -.16-.15h.05s.07 0 .08 0l.15-.3" fill="#fff"/><path d="m19.85 23.9c-.21.39-.47.67-.67 1.1a.71.71 0 0 1 .13.12.61.61 0 0 0 .12.12s.06 0 .08 0a.32.32 0 0 1 0 .12c0 .08-.05.15-.07.26a.66.66 0 0 0 0 .12h.1.08.16c0-.07 0-.14 0-.2a.33.33 0 0 0 -.08-.19.09.09 0 0 1 0 0s0 0 .08 0h.05c.06.12 0 .35.06.46a1.59 1.59 0 0 0 0-.43h.08a1.19 1.19 0 0 1 -.35-.12.39.39 0 0 1 -.15-.14.18.18 0 0 0 .11 0 .17.17 0 0 1 .08 0 .24.24 0 0 1 0-.06v-.07a.14.14 0 0 0 0 0s0-.05 0-.06 0 0 0 0a.59.59 0 0 1 0-.11.31.31 0 0 1 0 .13 1 1 0 0 0 0 .12c0-.07 0-.18 0-.24s0-.06 0-.07a.54.54 0 0 0 0 .17v-.08c0-.16 0-.35 0-.47a.24.24 0 0 1 0-.09s0 .26 0 .28a.9.9 0 0 0 -.05-.52v.18s0 .06 0 .06c0-.28.09-.47-.07-.64m0 .87.08.06a0 0 0 0 1 0 0h-.05s0 0 0 0m0 .12a.14.14 0 0 1 -.1 0 0 0 0 0 1 0 0h.06m-.05.1a.07.07 0 0 1 0 .07s0 0 .05 0" fill="#fff"/><path d="m21.35 24.5a.75.75 0 0 1 .19.19h-.05s0 0 0 0 .17.13.21.24 0 0 0 0 .18.13.21.24h-.05-.06c0 .08.15.08.16.18h-.08s0 0-.05 0c.08.08.19.14.23.25s0 0 0 0 .12.08.14.17-.09-.05-.1 0 .17.11.18.22a10.19 10.19 0 0 1 2.57 8.28v.07a7.3 7.3 0 0 1 -1.85 2.66l.07-.09s0 0 0 0-.07.09-.07.09a.06.06 0 0 0 0 0s.06-.07.09-.06-.06.07-.09.1 0 0 .09 0a.07.07 0 0 0 0 0 .15.15 0 0 0 .1 0h.08s0 0 0 0v.05s0 0 .06 0a.06.06 0 0 1 0 0s0 0 0 0a.08.08 0 0 0 0 .07h.12a.08.08 0 0 1 0 0 7 7 0 0 0 1.23-3.12 11.24 11.24 0 0 0 .07-2.83 11.39 11.39 0 0 0 -.45-2.16 9.91 9.91 0 0 0 -3.07-4.74" fill="#fff"/><path d="m20 24.22a1.55 1.55 0 0 0 0 .17z" fill="#fff"/><path d="m20.09 24.47v.1s0 0 0 0a0 0 0 0 0 0 0l-.05-.12" fill="#fff"/><path d="m20.15 24.69v.07.05-.1" fill="#fff"/><path d="m20.07 24.67v.14a.2.2 0 0 0 0 .07s0 0 0-.11v-.06s0 .06 0 .06" fill="#fff"/><path d="m19.12 24.32c-1.18 1.59-2.26 3.43-3.43 5 1.05-1.67 2.31-3.36 3.24-5 0 0-.07.14-.14.15s.08-.1.09-.16a.08.08 0 0 0 0-.06c-.05.08-.09.19-.17.21s.08-.1.09-.16a.08.08 0 0 0 0-.06s-.09.16-.12.14 0 0 .06-.08a0 0 0 0 0 0 0c0 .07-.08.16-.15.18s.06-.08.07-.13a.08.08 0 0 0 0-.07c0 .05-.06.1-.08.09s.06-.07.06-.11a.06.06 0 0 0 0 0s-.08.12-.1.11 0 0 0-.07c-.1 0-.1.17-.19.16s.05-.09.06-.14a.06.06 0 0 0 0-.05c-2 3-4 6-5.94 9l1.72.77.15.06c.06 0 .07 0 0 0h-.09l-.25-.1a.18.18 0 0 1 -.08-.07s0 0 .05 0h.03a0 0 0 0 1 0-.05s.16.08.17.06h-.07-.07s.14.06.18 0h-.09l-.09-.07s.2.11.21.08h-.05-.05a.26.26 0 0 1 -.06-.08s.14.07.15.05h-.1c-.1-.06 0-.07.05-.08h-.07-.06a.07.07 0 0 1 0 0h.05a.51.51 0 0 0 -.1-.1h-.09-.08a.36.36 0 0 1 -.15-.14c.77-1.17 1.53-2.39 2.33-3.5-.74 1.19-1.54 2.25-2.26 3.5a.41.41 0 0 1 .13.06h.06.13a.08.08 0 0 0 0-.06h-.07-.07a.08.08 0 0 1 0-.05c1.57-2.55 3.3-5 4.88-7.4a5.66 5.66 0 0 0 .64-1.11" fill="#fff"/><path d="m20.29 25.2v.07a1.19 1.19 0 0 0 0 .21.88.88 0 0 0 0-.22v-.07" fill="#fff"/><path d="m14.29 32 .05.17a.78.78 0 0 0 -.05-.17m0 0c0 .13.05.27.09.4a.15.15 0 0 1 0-.06c0-.09-.05-.24-.09-.26 0 .13.05.27.09.4-.08-.09-.06-.26-.14-.35a2.93 2.93 0 0 0 .11.48c-.08-.09-.09-.24-.14-.35a1.46 1.46 0 0 0 .06.39c-.09-.07-.05-.25-.15-.32 0 .15.07.24.06.39-.06-.09-.05-.23-.12-.31a2.51 2.51 0 0 0 .07.35c-.07 0 0-.17-.11-.23v.09a9.32 9.32 0 0 0 3.98 5.89h.08a7 7 0 0 0 1.3.56h.09-.12a6.51 6.51 0 0 1 -1.35-.52h-.05a9.63 9.63 0 0 1 -4-5.49l-.14-.43a9.32 9.32 0 0 0 4.19 6.04h.05l.11.06a3.89 3.89 0 0 0 4.69-.43c-.35.08-.58.41-.92.52.22-.22.61-.29.74-.56l-.1.06a1 1 0 0 1 0-.1c0 .07-.07 0-.11.06s0 0 .06-.08a.06.06 0 0 0 -.07 0s0 0-.06 0 0 0 .05 0a.15.15 0 0 0 -.1 0h-.09-.05s0 0 0-.08c-.07 0-.07.07-.12.05a.08.08 0 0 0 0 0h-.08s0 0 0-.06a.42.42 0 0 0 -.1.23.75.75 0 0 0 .08.51h-.16a.52.52 0 0 0 -.06-.27h-.07l-.07-.06h.1a1.2 1.2 0 0 1 .18.17.47.47 0 0 0 0-.12.32.32 0 0 0 0-.2s.11 0 .13-.08a1.94 1.94 0 0 0 -.71.18 4.05 4.05 0 0 1 -2.76-.47.3.3 0 0 0 -.12-.13c-.09 0-.19-.07-.28-.12h-.08c-2-1.16-3-3.37-3.7-5.59a1.16 1.16 0 0 1 0 .15s-.06-.16-.08-.23a.09.09 0 0 0 0 0m.69 3c.14 0 .24-.09.29-.3.12.19.3.38.27.63 0 .15-.11.2-.21.17h-.06l-.07-.05a.68.68 0 0 1 -.17-.24.63.63 0 0 1 0-.19m5.56 4.1a7.12 7.12 0 0 0 1.34-.36 2.59 2.59 0 0 1 -1.34.36m.3-.78.07.05a.22.22 0 0 1 0 .23.79.79 0 0 0 .19.19s0 0 0 0 0-.06 0-.09 0 0 .07 0a.38.38 0 0 1 0 .1c0 .11-.1.12-.21.08h-.08-.05l-.11-.08a.21.21 0 0 0 .06.19c0 .08-.1 0-.16 0a1 1 0 0 0 -.13-.56.16.16 0 0 1 .15-.09.3.3 0 0 1 .16 0m-5.27-2.25c.09-.14.23-.18.27-.42.09.15.3.28.27.46 0-.07 0-.14-.08-.2a.25.25 0 0 0 -.05-.03s0 0-.06 0c0 .12.15.19.14.24s0 0 0 0a.29.29 0 0 1 -.06-.09.24.24 0 0 0 -.06-.1s0 .07-.07.08a.45.45 0 0 0 .14.23h.05-.18c-.07 0-.14-.2-.22-.29l-.06-.06m4.5 2.29a.21.21 0 0 1 .09.15l-.1-.08s-.08 0-.11 0 0 .37.08.54a.07.07 0 0 0 -.06 0 .06.06 0 0 1 -.05 0 .14.14 0 0 0 0 0 1.9 1.9 0 0 0 0-.44c-.09 0-.15 0-.18 0a.15.15 0 0 1 0-.05c0-.07.08-.11.17-.12a.37.37 0 0 1 .22 0m-3.58-1.69c.14.14.13.42.19.62a.2.2 0 0 0 .1-.16.42.42 0 0 0 0-.11.2.2 0 0 1 .07.07 1.65 1.65 0 0 0 -.22.47 1.81 1.81 0 0 1 -.17-.61c-.06 0-.1.07-.12.18a1 1 0 0 0 0 .12l-.06-.06a1.39 1.39 0 0 0 .22-.45.43.43 0 0 0 0-.06m2.53 1.67a.22.22 0 0 1 .08.14s0 0 0 0a0 0 0 0 0 -.07 0c.07.14.25.19.27.37a.16.16 0 0 1 -.21.16h-.06a.25.25 0 0 1 -.12-.24l.07.08a.35.35 0 0 0 .09.09.09.09 0 0 0 .09 0c0-.19-.2-.23-.27-.37a.27.27 0 0 1 0-.08c0-.11.11-.13.2-.09m.49.87h.94a1.77 1.77 0 0 1 -.94 0m-2.13-1.7.1.07a.64.64 0 0 1 .21.28c-.06 0-.07-.1-.12-.13h-.06a.79.79 0 0 0 -.1.31s0 .09 0 .14a1.83 1.83 0 0 0 .14-.4.22.22 0 0 0 -.08-.1.23.23 0 0 0 -.14 0c0-.09.13-.09.23 0m.76.48h.07.05c0 .08-.06.21-.08.32a.32.32 0 0 0 0 .23s0 0-.06 0a.83.83 0 0 0 .06-.21 3.15 3.15 0 0 0 0-.39m1.31 1.19a0 0 0 0 1 -.06 0" fill="#fff"/><path d="m19.84 26-.13-.06c-.56-.24-1.06 0-1.18.75v.17s0 .09 0 .13a1.83 1.83 0 0 0 .73 1.44 2.27 2.27 0 0 1 -.56-1.33.11.11 0 0 1 0 .05s0 0 0 0c0-.06-.07-.06-.07-.13a.17.17 0 0 1 .06.06.24.24 0 0 1 0-.12s0 0 0-.07a.19.19 0 0 0 0-.11s0 0 0 0 0-.09 0-.08 0 0 0 .08 0-.1 0-.14 0 0 0 0 0 .06 0 .07v-.09.05s0-.09 0-.11 0 0 0 0 0-.08 0-.11 0 0 0 0 0 .08 0 .1c.09 0 .05-.09.09-.14v.06s0 0 0 0v-.06a.15.15 0 0 0 0 .09s0 0 0 0 0 .06 0 .07 0 0 0 0a.06.06 0 0 1 0 0h.11l.09.07.07.06a.12.12 0 0 0 .09 0v.1a.12.12 0 0 1 .11 0 .73.73 0 0 1 .25.27v.07h.06.06s0 .17-.09.14a1.61 1.61 0 0 0 -.57-.62h-.08-.06a.59.59 0 0 0 -.26 0h-.06c0 .09-.25.14-.3.44s-.07 0-.07 0 0 0 .06.07-.06 0-.08 0h.89c.06 0 .08.12.1.21a.34.34 0 0 0 .13.23c0-.11 0-.17 0-.27v-.07c-.27-.64.16-.8.55-.62h.06.05a.84.84 0 0 1 .34.44v.06a1.23 1.23 0 0 0 .22.85s0 .1 0 .22a.66.66 0 0 0 .15.27 4 4 0 0 1 -.2-.77c.24.25.16.76.47 1a2.9 2.9 0 0 0 -1.01-2.72m.48 1.36a.22.22 0 0 0 0 .07 1.26 1.26 0 0 0 .11.55c-.07 0-.21-.46-.11-.59m.46.55a.19.19 0 0 0 0-.05.62.62 0 0 1 .07.39.49.49 0 0 1 0-.15.1.1 0 0 1 0 0c0-.06.06 0 .07-.07m-.25-.13s0 0 0 .07a.14.14 0 0 0 0 .07s0 0 0 0a.2.2 0 0 1 0-.06.18.18 0 0 0 -.05-.07s0 0 0 0" fill="#fff"/><path d="m20.53 27.75s0 0 0 0a.19.19 0 0 1 .05.07.2.2 0 0 0 0 .06s0 0 0 0a.16.16 0 0 1 0-.07s0-.06 0-.07" fill="#231f20"/><path d="m20.34 27.3c-.1.13 0 .55.11.59a1.24 1.24 0 0 1 -.11-.55.22.22 0 0 1 0-.07" fill="#231f20"/><path d="m19.47 26.72h-.12c0 .68 0 1.38-.1 2.1h.21c0-.67.2-1.29.21-1.88a.2.2 0 0 1 -.06-.07.4.4 0 0 0 -.11-.13" fill="#fff"/><path d="m20.78 27.82a.19.19 0 0 1 0 .05c0 .06-.06 0-.07.07a.1.1 0 0 0 0 0 .49.49 0 0 0 0 .15.62.62 0 0 0 -.07-.39m0 .14a0 0 0 0 1 0 0s0 0 0 0z" fill="#231f20"/><path d="m19.08 27.55c.05.07.07.18.13.24a.56.56 0 0 0 -.06-.16.2.2 0 0 0 -.06-.08" fill="#fff"/><path d="m19.8 27.92a.28.28 0 0 0 0 .11v.35a.34.34 0 0 1 .08.3v.06s0 .08 0 .13c-.53.17-1.52-.32-1.65.6a1.49 1.49 0 0 0 0 .26 1.56 1.56 0 0 0 .68 1.17c-.06 0-.14-.06-.16 0 .14.09.25.24.34.3-.12.07-.28 0-.4.11a4.05 4.05 0 0 0 .68.06c0-.14 0-.1 0-.37a.16.16 0 0 1 0 0s0 0 0 0 0-.13 0-.22 0-.12 0-.18a2.51 2.51 0 0 0 -.06-.66s-.11.05-.15 0a.11.11 0 0 0 0 0 .17.17 0 0 0 0 .09c-.12 0-.28 0-.36.05.12.1.27.18.33.33-.11 0-.28 0-.36.05a.59.59 0 0 1 .13.12.6.6 0 0 0 .11.11s0 0 0 0c0 .07.09.07.09.15s-.13.07-.23 0v-.06c-.29-.25-.5-.34-.55-.68a.82.82 0 0 1 0-.26.53.53 0 0 1 .76-.41s0 0 0 .07a6.62 6.62 0 0 0 .94 0s0 0 0 .05 0 0 0-.06 0-.08 0-.06c.06 0 .16-.15.26-.28a1.09 1.09 0 0 1 -.2.39s-.06 0-.08 0c0 .08 0 .1 0 .09a.09.09 0 0 1 0-.06c-.07.27-.46.06-.55.15 1 .42 1.3-1.41.32-2m-.52 3.13a.06.06 0 0 0 0 0s0 0 0 0" fill="#fff"/><path d="m19.08 29.81c-.11 0-.24 0-.32.11a.07.07 0 0 1 0 .07c.06 0 .12.06.13 0s0 0 0 0 .2-.07.2-.11a0 0 0 0 0 0 0" fill="#fff"/><path d="m18.79 30.33s0 0 0 0 0 .07 0 .09 0-.07 0-.08" fill="#fff"/><path d="m20 29.64a.16.16 0 0 0 -.16 0 .17.17 0 0 0 .16 0" fill="#fff"/><path d="m20.65 28.33c.1.22.09.7.17.83a.22.22 0 0 1 0-.09s0 0 .06 0c-.12-.21-.11-.54-.23-.75" fill="#fff"/><path d="m16.83 28.48a5.93 5.93 0 0 0 -.17.69 2.92 2.92 0 0 0 0 .37c0 .58.25 1.11.19 1.51a.65.65 0 0 1 0-.38 6.32 6.32 0 0 1 -.21-1.81.63.63 0 0 0 -.09.29v.3a.13.13 0 0 1 0 0 .08.08 0 0 0 0-.05.63.63 0 0 0 .11.47c0-.09 0-.19 0-.25a.06.06 0 0 1 0 0 2.78 2.78 0 0 1 0 .51v-.07a.22.22 0 0 0 0 0 .17.17 0 0 0 0 .06c.09.1 0 .17.12.23a.34.34 0 0 1 0-.15s0 0 0 0a1 1 0 0 1 .16.59.35.35 0 0 1 0 .08.52.52 0 0 1 -.07-.17v-.07a1 1 0 0 1 .15.35.73.73 0 0 1 -.24-.09l-.26-.16-.26-.16c-.23-.13-.44-.17-.53.17a.3.3 0 0 1 .21 0l.17.12-.11.14c.26.12.5-.05.7 0l.07.05c-.34.13-.83-.1-1.26-.24s0 0 0-.08-.17.06-.22.15a2.19 2.19 0 0 0 .27.18 1.23 1.23 0 0 0 1.19.08h.05a.21.21 0 0 1 .06.07v.05s0 0 0 0a1.21 1.21 0 0 1 -.08-.78c0-.21.09-.43.12-.64a2.18 2.18 0 0 0 0-.31 3.45 3.45 0 0 0 -.23-1.1m0 .74s0 0 0 0a0 0 0 0 1 0 0zm0 .09a.71.71 0 0 1 0 .3c-.05-.06 0-.18 0-.3m-.32 0s0 .14 0 .16a.11.11 0 0 1 0-.06v-.05a.33.33 0 0 1 0-.08m.33.34a.59.59 0 0 1 0 .19.44.44 0 0 0 0 0s0 0 0 0 0-.16 0-.19zm-.21 1.43c0 .1-.17.05-.33 0l-.14-.11h-.06l-.25-.16c-.05 0-.07-.05-.07-.06s.08 0 .14 0h.07l.15.09.17.11a.41.41 0 0 0 .29.08m-.32-1.3s-.07 0-.08 0c.17.17.26.64.43.8a.69.69 0 0 1 -.11-.33v.08s0 0 0 0a.12.12 0 0 0 0-.08 0 0 0 0 1 0 0h-.06c-.07-.17-.08-.31-.12-.38" fill="#fff"/><path d="m17.2 32.52s-.1.05-.1.1a.05.05 0 0 0 0 0s.1 0 .11-.07a.1.1 0 0 0 0-.07" fill="#fff"/><path d="m17.88 32.64c-.12 0-.25 0-.33 0h.18a2 2 0 0 0 -.35.19.45.45 0 0 1 -.36.08l-.13.23c.14.06.24 0 .4.11.19-.24.54-.15.64-.57h-.06v-.06m-.71.5c0 .06-.07.06-.13 0h.05s.07 0 .1 0" fill="#fff"/><path d="m17.08 29.28a5.54 5.54 0 0 0 0 .82s0-.07 0-.06v.85c0-.06 0-.13 0-.18s0-.09 0-.1 0 0 0-.07a.33.33 0 0 0 0-.22.76.76 0 0 0 0 .14 4.6 4.6 0 0 0 .17 1.07.31.31 0 0 0 -.1-.11.18.18 0 0 0 -.11 0h-.06a.36.36 0 0 1 -.22 0 .09.09 0 0 0 .06.1.24.24 0 0 0 .2 0 .25.25 0 0 1 .15 0 .28.28 0 0 1 .1.14 1.46 1.46 0 0 0 -1.36.25l.15.09h-.06a.75.75 0 0 0 .57.09h.11.07.05c.08-.05.15-.12.22-.17a.29.29 0 0 1 .18-.08h.06.05a.6.6 0 0 1 .1.18c-.46 0-1 0-1.24.41a.78.78 0 0 0 1.07-.19l.16-.2a.13.13 0 0 1 .07.07.32.32 0 0 1 -.39.07v.13a.08.08 0 0 1 0 .05.06.06 0 0 0 0 0h.09s0 0 0 0a2 2 0 0 1 -.65.14s0 0 0-.05-.12 0-.2 0a.19.19 0 0 1 0 0s0 0 0 .09a.21.21 0 0 0 0 0c.64.35.89-.13 1.19-.51h.1c0-.11-.12-.13-.1-.26a1.5 1.5 0 0 0 .11-.38 3.14 3.14 0 0 0 -.2-1.53 9.84 9.84 0 0 1 .06 1 .06.06 0 0 1 0 0c0 .11-.09 0-.12.19 0 .19.12.4.09.59a.29.29 0 0 1 0 .09c-.29-.56.18-1.69-.25-2.19a1.06 1.06 0 0 0 -.05.13 1.79 1.79 0 0 0 -.05.23 4.65 4.65 0 0 0 .23 1.76c-.24-.3-.11-.68-.33-.83 0 .25.16.35.15.6-.25-.16-.21-.47-.16-.81v-.18a2.75 2.75 0 0 0 0-.41 5.16 5.16 0 0 0 -.22-1.17m.42 1a.78.78 0 0 1 0 .33.6.6 0 0 1 0-.33m0 .52a.31.31 0 0 1 0 .06c0 .24 0 .45.05.69-.08-.14 0-.36-.13-.49a.17.17 0 0 1 0 0c0-.07.06-.07.07-.14s0 0 0-.06m.25.58c.08.09 0 .27.06.42a.49.49 0 0 1 -.06-.28.18.18 0 0 1 0-.06s0 0 0 0 .05 0 .06-.07a.25.25 0 0 0 0 0m-1.64.59c.21 0 .52-.24.8-.29a.1.1 0 0 1 0 0c0 .08-.2 0-.25.06s-.35.17-.55.18m.42.44a.61.61 0 0 1 .53-.16c-.16.07-.37.07-.53.16" fill="#fff"/><path d="m21.8 30.75c-.06.31-.32.37-.37.66s0 .31 0 .48a.34.34 0 0 1 0 .09s0 0 0 0v.07s0 0 0 0a.33.33 0 0 1 0 .15c0 .1-.05.2-.08.18s0 0 0-.08a1.48 1.48 0 0 1 0 .29 1.41 1.41 0 0 1 -.09.34.47.47 0 0 1 0-.12c0-.08 0-.15 0-.21a.21.21 0 0 0 0-.12.74.74 0 0 0 0 .17v.41s-.11.38-.37.25c.11-.46.52-.8.61-1.41a1.77 1.77 0 0 0 0-.58 1.76 1.76 0 0 0 -.6 1.21 4.52 4.52 0 0 0 0 .72.28.28 0 0 1 -.09.09.39.39 0 0 1 -.31 0h-.08c.12-.26.32-.33.46-.55a1.7 1.7 0 0 1 0-.21c0-.28.14-.49.18-.73a1.14 1.14 0 0 0 0-.22.67.67 0 0 0 -.34.5.9.9 0 0 0 0 .23.25.25 0 0 1 0 0 .13.13 0 0 1 0 .06c.08-.06.09-.28.18-.33a2.93 2.93 0 0 1 -.36.84c0-.08.05-.13.06-.18a.13.13 0 0 0 -.05-.12c-.14.17-.19.83-.4.75.21-.36.56-.58.65-1.18a2.19 2.19 0 0 0 0-.42c-.12.16-.15.53-.27.72 0 .23-.31.24-.33.42a.25.25 0 0 0 0 .08c0-.06.07-.14.09-.13-.09 0-.05.31-.16.29a0 0 0 0 0 0 0 1.11 1.11 0 0 1 0 .2c0 .12-.06.21-.07.28l.15.07c0 .09.07.2.11.31a2.31 2.31 0 0 0 .56 1.12l.08.05h.07a2.32 2.32 0 0 0 -.21-.46h-.05a.13.13 0 0 0 -.1 0 2 2 0 0 1 -.1-.33c.09.05.09.25.11.26 0-.05-.18-.31-.16-.44a2.63 2.63 0 0 0 .6 1l.15.1h.09.07c-.17-.23-.18-.54-.33-.79s-.53-.44-.63-.86a.42.42 0 0 1 .23 0c.16.51.48.82.62 1.28a.66.66 0 0 1 .11.1.58.58 0 0 0 .12.1h.08a5.6 5.6 0 0 0 -.87-1.54h.1a.09.09 0 0 1 .08 0c.24.46.35 1 .82 1.32l.18.08c-.14-.54-.71-1-1-1.49.09 0 .13-.08.23 0v.08a2.11 2.11 0 0 0 .59 1l.15.1h.08a.79.79 0 0 0 .22.06h.15c-.27-.52-.84-.79-1.16-1.27 0-.06.08-.06.13 0a1 1 0 0 0 .17.33s0 0 .08 0 0 0-.08 0a2.15 2.15 0 0 0 .5.4s0 0-.05 0h.05.07a.11.11 0 0 1 .05.07s-.14-.07-.14-.05h.05a.28.28 0 0 1 .06.11v.09a.61.61 0 0 0 .67-.09h-.05l-.07-.07a.51.51 0 0 0 -.13-.11.55.55 0 0 1 -.5 0h-.08a1.66 1.66 0 0 1 -.58-.68 3.42 3.42 0 0 0 .65.51c.28.12.51-.06.77 0a.69.69 0 0 0 -.19-.27l-.07-.05a1 1 0 0 0 -.44-.09.94.94 0 0 1 -.44-.09l-.11-.1-.06-.09s0 0 0 0-.05 0 0-.08a.05.05 0 0 0 0 0 .13.13 0 0 0 0 0c0-.07.22-.18.24-.29a.09.09 0 0 0 0-.08s.09 0 .09 0a.19.19 0 0 0 0-.08c.1 0 .29-.15.31-.31s0 0 0 .06c0-.09-.08-.09-.09-.16h.12a0 0 0 0 0 0 0l-.05-.07a0 0 0 0 0 -.05 0c-.06.06-.08.29-.15.39-.15.13-.15.59-.34.64a.19.19 0 0 1 0 0 .33.33 0 0 1 0-.05 0 0 0 0 0 0 0s-.07.12-.15.08a8.44 8.44 0 0 0 .61-1c0 .16-.07.37 0 .49 0-.18.11-.23.14-.41v-.07h-.14s0 0 0-.05h.06s0 0 0 0a.06.06 0 0 0 -.06-.32c0-.19.1-.46 0-.57a2 2 0 0 0 -.58 1.32c0 .15 0 .31-.05.48a0 0 0 0 1 -.06 0 .84.84 0 0 1 0-.15 2.05 2.05 0 0 1 .15-.39 1.26 1.26 0 0 0 0-.13c0-.1 0-.21 0-.31a1.21 1.21 0 0 1 0-.19l.06-.12v-.07.07c.11-.2.27-.3.3-.43v-.11a1.45 1.45 0 0 0 -.07-.65m-.18 1.63a1.15 1.15 0 0 1 .23-.38s0 0 0 0a1.26 1.26 0 0 1 -.09.19.66.66 0 0 1 -.08.13.14.14 0 0 1 0 0s0 0 0 0a0 0 0 0 1 0 0m-.84-.32v.09m.07.76a1.6 1.6 0 0 1 .22-.59 7.38 7.38 0 0 0 -.23.83 1.13 1.13 0 0 1 0-.23m.72-.15a.18.18 0 0 1 0 0s0 .05 0 0a.41.41 0 0 0 0-.07s0 0 0 0m.06 1.07a4.27 4.27 0 0 1 .47.14h-.1a1 1 0 0 1 -.24-.07h-.06m1 .63c0 .08-.16 0-.25 0s.16 0 .25 0m-.43-.08s-.06 0-.1 0 .06 0 .1 0m-2.39-1.33s0 .09 0 .11v-.12s0 0 0 0m1.9 1.17.11.08s-.13 0-.21-.06c-.05 0-.09-.06-.09-.08s.09 0 .18 0m-.75-.4a.2.2 0 0 1 0 .07v.05a.17.17 0 0 0 0-.07m-.9-.34c.09.07.11.26.17.39 0-.06-.27-.24-.29-.42h.06m.67.48c.12.1.2.44.32.6-.08 0-.19-.35-.26-.51a.08.08 0 0 1 0-.05m.21.88a1.67 1.67 0 0 1 -.4-.57c.14.18.26.39.4.57m-.47-2.45s0 0 0 0m-.3 0a.21.21 0 0 1 -.1.07.47.47 0 0 0 .05-.11m-.41.43a.16.16 0 0 0 0 .06z" fill="#fff"/><path d="m22.27 32.55c-.06 0-.21.24-.31.21 0 .13-.15.16-.16.25a.13.13 0 0 0 0 .05c0-.06.07-.06.13 0s-.22.06-.24.17a.22.22 0 0 0 0 .08c0-.12.12 0 .24-.11a.17.17 0 0 1 .09.11c-.07.09-.21 0-.27.13s.12 0 .18 0a.18.18 0 0 1 0-.06c0-.06.08 0 .09 0a.13.13 0 0 0 0 0c0-.12-.15-.09-.14-.21.08 0-.06-.27 0-.25a.2.2 0 0 0 .16 0 .21.21 0 0 1 .14 0 .31.31 0 0 0 0-.17c-.14 0-.19.08-.31.07s0-.08 0-.13.08 0 .13-.06a.12.12 0 0 1 0-.09s0 0 0 0a.24.24 0 0 0 0-.14m0 .6s0 0-.08 0 0 0 .08 0" fill="#fff"/><path d="m21.59 31.79v.07zm0 .07v.06z" fill="#231f20"/><path d="m19.73 30a.45.45 0 0 0 -.26 0 9.61 9.61 0 0 0 -.14 1.44c.1-.08.24 0 .37-.09a2.1 2.1 0 0 1 -.3-.31s0-.12 0-.16 0 0 0 0a.35.35 0 0 0 0 .17c.11 0 .24 0 .31-.07a.88.88 0 0 1 -.26-.26c.11.11.27.17.3.35a.16.16 0 0 0 -.16 0s0 0 0 .05l.06.05a.34.34 0 0 1 .08.14.08.08 0 0 1 0 0 .24.24 0 0 1 0 .1c0 .08-.08.11-.16.12-.33.05-1-.25-1.3-.08-.6.29-.46 1.67.24 2.1-.12-.17-.3-.3-.41-.47a2.78 2.78 0 0 1 -.1-.34v-.06a1 1 0 0 1 0-.33.55.55 0 0 1 .12-.27c.11-.13.26-.09.4-.14s0 0 0 .07a.07.07 0 0 0 0 0c.06 0 0-.11.09-.11s0 .06 0 .07h.08s0 0 0 .08c.19-.23.4.06.51 0s0 0 0 .05a0 0 0 0 0 0 0s0 0 0 0l.06-.06v.06c0-.1.16-.05.24-.07 0 .06-.07 0-.08.06s.17 0 .21-.08 0 .07 0 .07a0 0 0 0 1 .05 0s0 0 0 .06a0 0 0 0 0 0 0s0-.16.09-.14a.06.06 0 0 0 0 0 0 0 0 0 0 0 0 0 0 0 0 0 .06 0s0 0 0-.06.22-.21.27-.45a1.36 1.36 0 0 1 0 .22c-.15 1-1.35.24-1.83.67v.05s-.1.1-.13.12h.07s.06.09.08.16a.25.25 0 0 0 .1.17c0-.11.05-.27.09-.39s-.12-.1-.14-.13c.5-.35 1.53.4 1.74-.58v-.09a1.39 1.39 0 0 0 -.54-1.33 1.91 1.91 0 0 1 -.42.07c0-.06 0-.09.06-.11a.1.1 0 0 0 0 .05.15.15 0 0 0 .11 0 .42.42 0 0 1 .12 0c-.07-.12-.21-.18-.25-.33a.13.13 0 0 0 0-.06s0 0 .08 0a.13.13 0 0 1 .11 0l.07.05a.18.18 0 0 0 -.09-.15m-.24 0v.09m-1.37 2c.05 0 0 .06 0 .1s0-.06 0-.11v-.05" fill="#fff"/><path d="m18.58 29.63c-.06 0-.1 0-.14.08s.11 0 .14-.08" fill="#fff"/><path d="m18.36 30.11v.06-.07" fill="#fff"/><path d="m16.53 29.34a.33.33 0 0 0 0 .08v.05a.11.11 0 0 0 0 .06s0-.13 0-.16" fill="#231f20"/><path d="m21.81 32a1.15 1.15 0 0 0 -.19.35 0 0 0 0 0 0 0s0 0 0 0a.14.14 0 0 0 0 0 .68.68 0 0 0 .08-.13 1.26 1.26 0 0 0 .09-.19s0 0 0 0" fill="#231f20"/><path d="m18 30.68a1.16 1.16 0 0 0 -.06.23.91.91 0 0 0 0 .4.35.35 0 0 1 0-.16s0 0 0 0 .07.2 0 .34a.05.05 0 0 0 0 0 .05.05 0 0 1 0 0 5.63 5.63 0 0 0 -.2-.81" fill="#fff"/><path d="m21.08 32.14a1.6 1.6 0 0 0 -.22.59 1.13 1.13 0 0 0 0 .23 7.38 7.38 0 0 1 .23-.83" fill="#231f20"/><path d="m21.58 32.58s0 0 0 0a.41.41 0 0 1 0 .07s0 0 0 0a.18.18 0 0 0 0 0" fill="#231f20"/><path d="m16.17 30.22a.06.06 0 0 0 -.08 0 .61.61 0 0 1 .11.16s0 0 0 0 .1.13.12.16a.55.55 0 0 0 0-.09 1 1 0 0 0 -.11-.19.39.39 0 0 0 -.11-.11" fill="#fff"/><path d="m17.73 31.35a.25.25 0 0 1 0 0s-.05 0-.06.07 0 0 0 0a.18.18 0 0 0 0 .06.49.49 0 0 0 .06.28c0-.15 0-.33-.06-.42" fill="#231f20"/><path d="m20.06 32.55s0 0-.07 0h-.07a.14.14 0 0 1 -.08 0 1 1 0 0 1 -.29.4c0-.06.07-.1.08-.16a.16.16 0 0 0 0-.05s0 0 0-.06a.57.57 0 0 0 0-.13h-.03c-.07 0-.13.12-.15.28a1.05 1.05 0 0 0 0 .15h.1c.08-.28.46-.32.49-.52a.17.17 0 0 0 0 0" fill="#fff"/><path d="m18.52 32.07c-.2 0-.33.15-.42.38a1.48 1.48 0 0 1 .42-.38" fill="#fff"/><path d="m22.15 33.8a4.27 4.27 0 0 0 -.47-.14h.06a1 1 0 0 0 .24.07h.13" fill="#231f20"/><path d="m18.13 32.07v.05s-.05.1 0 .11.08-.07 0-.1" fill="#231f20"/><path d="m19 32.55s0 0 0 0v-.07c-.09 0-.13 0-.14.15s0 .22 0 .3c0 .17-.08.35-.1.53a1.78 1.78 0 0 0 0 .24c.13 0 .3.11.4.07a3.28 3.28 0 0 0 0-1.1s-.12-.12-.11-.19" fill="#fff"/><path d="m16.88 31.65c-.28 0-.58.24-.8.29.2 0 .43 0 .55-.18s.23 0 .25-.07a.1.1 0 0 0 0 0" fill="#231f20"/><path d="m19.28 33a3.21 3.21 0 0 0 0 .88c-.7.1-1.69-.45-1.95.59.16.08.32.16.42.12a.21.21 0 0 1 0-.08s0 0 .07-.11 0 .07.05.09 0 0 0 0 0-.09 0-.11a.1.1 0 0 0 0 .07s.08 0 0-.14a.17.17 0 0 0 .06.07h.09a1 1 0 0 1 .32 0l.06.05a.86.86 0 0 0 .25.07h.35a1.06 1.06 0 0 1 .34.09l.07.05a.08.08 0 0 1 0 0s0 0 0 0 0 0 0 .06a.11.11 0 0 0 0-.05s0-.07.05-.05 0 0 0 .05c.05 0 0-.06 0-.1s0 0 0 0a0 0 0 0 1 0 0v.06a.91.91 0 0 0 .14-.22s0 0-.1.09c.06-.08.08-.24.13-.22s0-.12 0-.16 0 0 0 0a.66.66 0 0 1 0 .2.91.91 0 0 1 -.29.49s0 0 0 0c-.3.46-1.15-.28-1.47.13.59-.21 1.66.53 1.81-.51v-.11a1.26 1.26 0 0 0 -.68-1.2" fill="#fff"/><path d="m21 33.82a.17.17 0 0 1 0 .07v-.05a.2.2 0 0 0 0-.06" fill="#231f20"/><path d="m20.13 33.48h-.06c0 .18.25.35.29.42-.05-.12-.07-.31-.17-.39" fill="#231f20"/><path d="m17 32.22a.61.61 0 0 0 -.53.16c.16-.09.36-.08.53-.16" fill="#231f20"/><path d="m20.81 34a.08.08 0 0 0 0 .05c.07.16.18.46.26.51-.12-.16-.2-.5-.32-.6" fill="#231f20"/><path d="m17.17 33.14s-.06 0-.1 0h-.05.13" fill="#231f20"/><path d="m18.61 33.06h-.07z" fill="#fff"/><path d="m18 33.74a.15.15 0 0 0 -.21 0s-.07.1-.12.07.08 0 .08 0a.12.12 0 0 0 0 0c-.13-.05-.18.05-.24.14.23.07.34-.1.5-.17" fill="#fff"/><path d="m18 33a4.87 4.87 0 0 0 -.92.52l.1.06h.08a.54.54 0 0 0 .83-.33h-.09s0 0 0 0 .1 0 .11 0a.21.21 0 0 0 0-.09.37.37 0 0 1 -.34.1s.06-.1.08-.08c0-.07 0-.08 0-.13s0 0 0 0 .08 0 .08-.05 0 0 0 0m0 .37s0 .07 0 .11a0 0 0 0 1 0 0s0 0 0 0 .05-.06.06-.09m-.63.16c0-.08.26-.16.36-.27a.29.29 0 0 1 0 0c0 .16-.23.21-.36.24" fill="#fff"/><path d="m18 33.37s0 .06-.06.09 0 0 0 0a0 0 0 0 0 0 0s0-.1 0-.11" fill="#231f20"/><path d="m20.61 34.26a1.67 1.67 0 0 0 .4.57c-.14-.18-.26-.39-.4-.57" fill="#231f20"/><path d="m18.25 33.39s-.12 0-.16 0a1 1 0 0 0 0 .23.25.25 0 0 1 .15-.19s0 0 0 0a.44.44 0 0 0 0 0s0-.06 0-.07" fill="#fff"/><path d="m24.47 36.17c.18 1.07.56 2 .76 3l-.13-.09-.33-.08-.32-.15-.15-.1a5.73 5.73 0 0 0 .89.36c-.25-.88-.47-1.79-.74-2.66a.45.45 0 0 1 0 .11c0 .12.06.19 0 .31a.14.14 0 0 1 0-.07.37.37 0 0 0 0-.08.54.54 0 0 1 .05.24.15.15 0 0 1 0-.08.12.12 0 0 0 0-.09c0 .13.07.16 0 .29 0-.07 0-.17-.1-.23a2.55 2.55 0 0 0 .07.35c-.05 0-.05-.14-.11-.19s0 .13 0 .23a.05.05 0 0 1 0 0 .13.13 0 0 0 0-.06v.21s0-.11-.09-.15a8.54 8.54 0 0 0 .2.84c-1.27-.52-2.53-1.22-3.75-1.68 0 .06-.05.06-.06.11a.23.23 0 0 0 0 .1s-.05 0-.05 0a.06.06 0 0 1 0 0s0 0 0 0a0 0 0 0 0 0 0 0 0 0 0 1 0 0h-.08s0 0-.05 0a.14.14 0 0 1 0 .07s0 .06 0 .1a.13.13 0 0 0 0 .07.12.12 0 0 0 -.16.07l.21.14c.14.08.29.13.35.07h-.1-.09a.1.1 0 0 1 0-.06l.29.13c0-.09 0-.24.13-.23a.87.87 0 0 1 .1.29s0 0 0 0h.06a.06.06 0 0 1 0 .05s-.07 0-.08 0l.13.08.12.07.25.14c.38.2.78.4 1.18.59l.57.26c.58.26 1.16.51 1.7.73l.46.19h.06c-.33-1-.54-2.13-.9-3.13m-.22 2.51c-.83-.29-2-.88-2.94-1.32.84.29 1.95.92 2.94 1.32m-3.13-1.44s0 0-.06 0 0 0 .06 0z" fill="#fff"/><path d="m20.77 36.84a.67.67 0 0 0 0 .14.85.85 0 0 0 .07.49.3.3 0 0 0 .11.12h.06s0 0 0-.05c.13.07.23.06.3 0a.25.25 0 0 1 -.15 0 .62.62 0 0 1 -.22-.23s0 .09 0 .1a1.6 1.6 0 0 1 -.1-.29s0 0 .05 0c0-.06 0-.17 0-.21" fill="#fff"/><path d="m17.72 33.28c-.1.11-.31.19-.36.27.13 0 .33-.08.36-.24a.28.28 0 0 0 0 0" fill="#231f20"/><path d="m20 34.45c0 .08 0 .27-.1.24s.05.09 0 .11 0 0-.06 0 .12.12.19.16h.1c-.12-.13-.09-.39-.18-.54" fill="#fff"/><path d="m20.18 34.53v.09s0 0 0-.05v-.06" fill="#231f20"/><path d="m21.12 35.25c-1-.54-1.14 1-1.71 1.49h-.06l-.12.06c-.11 0-.26-.06-.3.15a.7.7 0 0 0 0 .11.93.93 0 0 0 .87-.29s0 0 0 0a0 0 0 0 0 0 0 .74.74 0 0 0 .2-.43.35.35 0 0 0 0-.08 1.18 1.18 0 0 1 0-.06c.22-.44.73-.76 1.11-.59a.78.78 0 0 1 .3.39v.07c.05.12 0 .21.11.28h.08a1.33 1.33 0 0 0 -.5-1.16l-.13-.08" fill="#fff"/><path d="m18.45 34.44s-.13 0-.14 0 .1 0 .13 0" fill="#fff"/><path d="m21.15 35.68s0 0-.06 0h.05s0 0 0 0h-.05-.06" fill="#fff"/><path d="m21.15 35.79a.59.59 0 0 0 -.8.34.3.3 0 0 0 0 .05c-.19.37-.39 1-.64 1.11s-.05 0-.06.08a.1.1 0 0 0 0 0c-.12.11-.42.06-.48.18.8.36 1.14-1.69 1.71-1.84a.37.37 0 0 1 .21 0l.09.06a.77.77 0 0 1 .25.44c0-.15 0-.23 0-.36h-.06a.37.37 0 0 1 -.09-.1l-.06-.06" fill="#fff"/><path d="m19.06 35c0 .15 0 .3-.05.44s-.1.48-.25.53 0-.05 0-.09.13 0 .14-.13v-.06s0 0 0 0 0-.16.06-.28a.63.63 0 0 0 0-.14c-.06-.08-.12-.22-.2-.3l-.07-.06h-.07a3.48 3.48 0 0 0 -.04 1.09c-.12 0-.18.17-.22.38a2.46 2.46 0 0 0 0 .3 3.3 3.3 0 0 0 .23 1.29 2.29 2.29 0 0 1 0-.32 2.22 2.22 0 0 1 0-.44 3.75 3.75 0 0 1 .34-1 1 1 0 0 1 0 .36c0 .32-.23.6-.31.9a.13.13 0 0 0 0 0 4.31 4.31 0 0 0 .31-.84 1.85 1.85 0 0 0 0-.26c0-.13-.07-.23-.09-.36a2.56 2.56 0 0 0 .2-.62 1 1 0 0 0 0-.37" fill="#fff"/><path d="m20.44 35.8c0 .06-.1.07-.11.12a.08.08 0 0 0 0 .06c0-.07.09-.09.1-.13a0 0 0 0 0 0 0" fill="#fff"/><path d="m19.83 36.85s-.06 0-.06.08 0 0 0 0 0-.06.05-.09 0 0 0 0" fill="#fff"/><path d="m17.43 35.84-.15-.07v.14.1a2.22 2.22 0 0 0 .79 1.2l.09.06.15.07h-.07a1.85 1.85 0 0 1 -.7-.85v-.07-.07s0 0 0 0a.26.26 0 0 1 -.07-.14.25.25 0 0 1 0-.09c0-.08-.06-.12-.06-.15s0 0 0 0a.21.21 0 0 0 -.1-.11" fill="#fff"/><path d="m21.2 37.71c-.05 0-.16 0-.16 0s.12 0 .15 0" fill="#fff"/><path d="m21.94 38.83a7.12 7.12 0 0 1 -1.34.36 2.59 2.59 0 0 0 1.34-.36" fill="#231f20"/><path d="m20.57 39.18c-.3 0-.63 0-.94 0a1.77 1.77 0 0 0 .94 0" fill="#231f20"/><path d="m36.6 23.63-2.28 1.03-1.69 8.46-1.66-6.94-2.27 1.02-.05 11.96 1.18-.53.05-10.47 2.2 9.46.76-.35 2.27-11.48-.05 10.47 1.49-.67z" fill="#231f20"/><path d="m38.99 22.55-1.52.69-.05 11.96 4.95-2.24.01-1.95-3.43 1.55z" fill="#231f20"/><path d="m59.08 12h8.65a.72.72 0 0 0 .48-.14 1.06 1.06 0 0 0 .27-.52h.33v3.66h-.33a1.06 1.06 0 0 0 -.27-.52.72.72 0 0 0 -.48-.14h-12.38v-.34a1.06 1.06 0 0 0 .52-.27.71.71 0 0 0 .14-.48v-11.92a.72.72 0 0 0 -.14-.48 1.06 1.06 0 0 0 -.52-.27v-.34h4.39v.33a1 1 0 0 0 -.52.26.73.73 0 0 0 -.14.49z" fill="#231f20"/><path d="m73.46 9.41v2.81h7.33a.74.74 0 0 0 .49-.14 1 1 0 0 0 .27-.52h.29v3.44h-.29a1 1 0 0 0 -.27-.51.74.74 0 0 0 -.49-.15h-10.79v-.34a1 1 0 0 0 .51-.27.74.74 0 0 0 .15-.49v-9.42a.72.72 0 0 0 -.14-.48 1.12 1.12 0 0 0 -.52-.28v-.29h10.47a.75.75 0 0 0 .5-.14 1 1 0 0 0 .27-.52h.28v3.41h-.28a1 1 0 0 0 -.24-.52.76.76 0 0 0 -.5-.14h-7v2.54h4.35a.74.74 0 0 0 .49-.14 1.09 1.09 0 0 0 .28-.52h.28v3.33h-.28a1 1 0 0 0 -.27-.51.74.74 0 0 0 -.5-.15z" fill="#231f20"/><path d="m87 12.22h4.3q2.08 0 2.08-1.52t-2.08-1.51h-4.3v3zm0-5.12h4.2a2.84 2.84 0 0 0 1.4-.25.94.94 0 0 0 .4-.85.93.93 0 0 0 -.41-.86 2.84 2.84 0 0 0 -1.41-.25h-4.18zm7.19 1a4.53 4.53 0 0 1 1.26.78 2.68 2.68 0 0 1 .75 2 3 3 0 0 1 -1.28 2.61 5.27 5.27 0 0 1 -3.12.81h-8.22v-.3a1 1 0 0 0 .51-.27.74.74 0 0 0 .15-.49v-9.42a.72.72 0 0 0 -.14-.48 1.12 1.12 0 0 0 -.52-.28v-.29h8.08a5.1 5.1 0 0 1 3.11.76 2.63 2.63 0 0 1 1.05 2.21 2.31 2.31 0 0 1 -.37 1.35 3.66 3.66 0 0 1 -1.27 1z" fill="#231f20"/><path d="m104.39 4.71a3.91 3.91 0 0 0 -2.91 1.14 3.7 3.7 0 0 0 -1 2.69 3.69 3.69 0 0 0 1 2.68 4.26 4.26 0 0 0 5.83 0 3.61 3.61 0 0 0 1-2.63 3.71 3.71 0 0 0 -1-2.74 4 4 0 0 0 -2.92-1.14zm0-2.19a7.35 7.35 0 0 1 4.61 1.4 5.61 5.61 0 0 1 2.2 4.71 5.42 5.42 0 0 1 -2.2 4.53 8.15 8.15 0 0 1 -9.14 0 5.5 5.5 0 0 1 -2.21-4.62 5.45 5.45 0 0 1 2.21-4.62 7.51 7.51 0 0 1 4.55-1.4z" fill="#231f20"/><path d="m121.47 6.3-2.53 6.28a2.14 2.14 0 0 0 -.19.76q0 .58.68.7v.28h-4.3v-.32a.69.69 0 0 0 .62-.7 2.31 2.31 0 0 0 -.19-.76l-3.05-7.84a5.22 5.22 0 0 0 -.59-1.21 1.31 1.31 0 0 0 -.73-.43v-.29h4.39v.29q-.64.21-.64.65a2.45 2.45 0 0 0 .21.74l2.17 5.45 2.16-5.41a2.18 2.18 0 0 0 .2-.74q0-.51-.69-.69v-.29h5.14v.29q-.67.22-.67.72a2 2 0 0 0 .17.67l2.11 5.45 2.11-5.51a1.87 1.87 0 0 0 .13-.63.62.62 0 0 0 -.14-.44 1.19 1.19 0 0 0 -.53-.27v-.28h4.5v.29a1.69 1.69 0 0 0 -.74.47 5 5 0 0 0 -.58 1.17l-3.1 7.88a2.07 2.07 0 0 0 -.16.74q0 .6.7.72v.28h-4.48v-.32a.76.76 0 0 0 .66-.75 2.92 2.92 0 0 0 -.23-.71z" fill="#231f20"/><path d="m136 3.82v9.43a.73.73 0 0 0 .14.49 1.08 1.08 0 0 0 .52.28v.29h-4.08v-.31a1 1 0 0 0 .51-.27.74.74 0 0 0 .15-.49v-9.42a.72.72 0 0 0 -.14-.48 1.13 1.13 0 0 0 -.52-.28v-.29h4.08v.29a1 1 0 0 0 -.52.27.73.73 0 0 0 -.14.49z" fill="#231f20"/><path d="m145.11 4.86v8.39a.73.73 0 0 0 .14.49 1.09 1.09 0 0 0 .52.28v.29h-4.08v-.31a1 1 0 0 0 .51-.27.74.74 0 0 0 .15-.49v-8.38h-3.4a.74.74 0 0 0 -.5.15 1 1 0 0 0 -.27.51h-.28v-3.41h.28a1 1 0 0 0 .26.51.73.73 0 0 0 .5.15h9.58a.75.75 0 0 0 .5-.14 1 1 0 0 0 .27-.52h.28v3.41h-.28a1 1 0 0 0 -.29-.52.74.74 0 0 0 -.5-.15z" fill="#231f20"/><path d="m155 12.22h5.86a.73.73 0 0 0 .49-.15 1.14 1.14 0 0 0 .28-.51h.28v3.44h-.28a1 1 0 0 0 -.26-.51.74.74 0 0 0 -.5-.15h-10.35v-.64l6.73-8.84h-5.59a.74.74 0 0 0 -.49.14 1.1 1.1 0 0 0 -.28.52h-.28v-3.41h.28a1 1 0 0 0 .27.52.75.75 0 0 0 .5.14h10.15v.51z" fill="#231f20"/><path d="m59.08 29.38h3.86a6 6 0 0 0 2.78-.51q2-1.08 2-4.22a5.06 5.06 0 0 0 -1.07-3.47 3.32 3.32 0 0 0 -1.45-1 7.29 7.29 0 0 0 -2.25-.18h-3.87v9.43zm-3.08 1.24v-11.91a.72.72 0 0 0 -.14-.48 1.06 1.06 0 0 0 -.52-.27v-.33h7.86a10.49 10.49 0 0 1 4 .59 5.65 5.65 0 0 1 2.89 2.78 8.17 8.17 0 0 1 .75 3.62 6.88 6.88 0 0 1 -2.24 5.55 5.62 5.62 0 0 1 -2.2 1.15 12.39 12.39 0 0 1 -3.21.35h-7.84v-.33a1.06 1.06 0 0 0 .52-.27.71.71 0 0 0 .14-.48z" fill="#231f20"/><path d="m76.22 26.8v2.81h7.33a.74.74 0 0 0 .49-.14 1 1 0 0 0 .27-.52h.29v3.41h-.29a1 1 0 0 0 -.27-.51.74.74 0 0 0 -.49-.15h-10.75v-.29a1 1 0 0 0 .51-.27.74.74 0 0 0 .15-.49v-9.44a.72.72 0 0 0 -.14-.48 1.12 1.12 0 0 0 -.52-.28v-.29h10.43a.75.75 0 0 0 .5-.14 1 1 0 0 0 .27-.52h.28v3.41h-.28a1 1 0 0 0 -.27-.52.76.76 0 0 0 -.5-.14h-7v2.54h4.35a.74.74 0 0 0 .49-.14 1.09 1.09 0 0 0 .28-.52h.28v3.33h-.28a1 1 0 0 0 -.27-.51.74.74 0 0 0 -.5-.15z" fill="#231f20"/><path d="m89.52 24.1v6.55a.74.74 0 0 0 .15.49 1 1 0 0 0 .51.28v.29h-3.84v-.29a1 1 0 0 0 .51-.27.74.74 0 0 0 .15-.49v-9.45a.71.71 0 0 0 -.14-.48 1.11 1.11 0 0 0 -.52-.28v-.29h4.44v.29q-.46.11-.46.4a.9.9 0 0 0 .33.58l6.19 6.14v-6.36a.74.74 0 0 0 -.14-.49 1 1 0 0 0 -.52-.27v-.29h3.82v.29a1 1 0 0 0 -.52.27.73.73 0 0 0 -.14.49v9.43a.73.73 0 0 0 .14.49 1.09 1.09 0 0 0 .52.28v.29h-4.11v-.29q.45-.09.45-.38a.48.48 0 0 0 -.12-.3q-.12-.15-.57-.6l-6.13-6z" fill="#231f20"/><path d="m108.41 22.25v8.39a.73.73 0 0 0 .14.49 1.08 1.08 0 0 0 .52.28v.29h-4.07v-.29a1 1 0 0 0 .51-.27.74.74 0 0 0 .15-.49v-8.4h-3.4a.74.74 0 0 0 -.5.15 1 1 0 0 0 -.27.51h-.28v-3.41h.28a1 1 0 0 0 .26.51.74.74 0 0 0 .5.15h9.58a.75.75 0 0 0 .5-.14 1 1 0 0 0 .27-.52h.28v3.41h-.28a1 1 0 0 0 -.27-.51.74.74 0 0 0 -.5-.15z" fill="#231f20"/><path d="m120.7 27.2-1.89-3.71-1.81 3.71zm.83 1.62h-5.31l-.6 1.26a1.81 1.81 0 0 0 -.22.71q0 .49.66.63v.29h-4.24v-.29a1.1 1.1 0 0 0 .58-.24 2.54 2.54 0 0 0 .45-.69l4.22-8.49a2 2 0 0 0 .24-.85c0-.28-.19-.5-.58-.66v-.29h4.48v.29a.75.75 0 0 0 -.57.7 1.9 1.9 0 0 0 .26.84l4.37 8.28a4 4 0 0 0 .57.87 1.23 1.23 0 0 0 .63.28v.29h-4.72v-.29q.67-.11.67-.63a1.74 1.74 0 0 0 -.26-.79l-.64-1.18z" fill="#231f20"/><path d="m130.86 29.61h6.46a.74.74 0 0 0 .49-.14 1.1 1.1 0 0 0 .28-.52h.28v3.41h-.28a1 1 0 0 0 -.27-.52.76.76 0 0 0 -.5-.14h-9.89v-.29a1 1 0 0 0 .51-.27.74.74 0 0 0 .15-.49v-9.44a.71.71 0 0 0 -.14-.48 1.12 1.12 0 0 0 -.52-.28v-.29h4.08v.29a1 1 0 0 0 -.52.27.74.74 0 0 0 -.14.49v8.4z" fill="#231f20"/><path d="m66 43.58-2.28-5-2.32 5zm.88 1.93h-6.4l-.95 2a1.65 1.65 0 0 0 -.2.65q0 .45.69.63v.33h-4.67v-.33a1.25 1.25 0 0 0 .63-.29 2.84 2.84 0 0 0 .49-.8l5.18-10.81a2.05 2.05 0 0 0 .25-.89q0-.47-.6-.68v-.32h5v.33q-.61.18-.61.61a1.52 1.52 0 0 0 .2.68l5.36 10.85a3.66 3.66 0 0 0 .6.94 1.31 1.31 0 0 0 .69.34v.33h-5.2v-.33q.68-.11.68-.64a1.65 1.65 0 0 0 -.21-.64l-1-2z" fill="#231f20"/><path d="m84.57 38.59-1.39 2.69-.25-.13a.69.69 0 0 0 -.22-.54 4.51 4.51 0 0 0 -1.71-.87 8.1 8.1 0 0 0 -2.32-.34 5.22 5.22 0 0 0 -1.77.28q-1.11.4-1.11 1.16a.74.74 0 0 0 .54.72 8.47 8.47 0 0 0 2.07.34l1.59.1a7.64 7.64 0 0 1 3.25.82 3.16 3.16 0 0 1 1.53 2.73 3.16 3.16 0 0 1 -1.59 2.78 7.49 7.49 0 0 1 -4.1 1 12.08 12.08 0 0 1 -5-1.1.73.73 0 0 0 -.28-.07.48.48 0 0 0 -.38.25l-.26-.1 1.19-2.82.26.1v.08a.59.59 0 0 0 .21.45 4.53 4.53 0 0 0 1.78.79 9.78 9.78 0 0 0 2.51.33 6.16 6.16 0 0 0 1.88-.24q1.07-.35 1.07-1.13a.91.91 0 0 0 -.74-.88 9 9 0 0 0 -1.78-.28l-1.55-.18a13.91 13.91 0 0 1 -2-.27 4.06 4.06 0 0 1 -1.21-.48 2.85 2.85 0 0 1 -1-1.12 3.31 3.31 0 0 1 -.37-1.56 3.2 3.2 0 0 1 1.58-2.9 6.92 6.92 0 0 1 3.67-.91 8.92 8.92 0 0 1 2.21.26 14.75 14.75 0 0 1 2.45.92 1.73 1.73 0 0 0 .59.2.73.73 0 0 0 .42-.23l.25.13z" fill="#231f20"/><path d="m97.57 38.59-1.39 2.69-.25-.13a.69.69 0 0 0 -.22-.54 4.52 4.52 0 0 0 -1.71-.87 8.1 8.1 0 0 0 -2.32-.34 5.22 5.22 0 0 0 -1.77.28q-1.11.4-1.11 1.16a.74.74 0 0 0 .54.72 8.48 8.48 0 0 0 2.07.34l1.59.1a7.64 7.64 0 0 1 3.25.82 3.15 3.15 0 0 1 1.53 2.73 3.16 3.16 0 0 1 -1.59 2.78 7.48 7.48 0 0 1 -4.1 1 12.07 12.07 0 0 1 -5-1.1.73.73 0 0 0 -.28-.07.48.48 0 0 0 -.38.25l-.26-.1 1.18-2.82.26.1v.08a.59.59 0 0 0 .21.45 4.53 4.53 0 0 0 1.78.79 9.78 9.78 0 0 0 2.5.33 6.16 6.16 0 0 0 1.9-.24q1.07-.35 1.07-1.13a.91.91 0 0 0 -.74-.88 9 9 0 0 0 -1.78-.28l-1.55-.18a13.91 13.91 0 0 1 -2-.27 4 4 0 0 1 -1.21-.48 2.86 2.86 0 0 1 -1-1.12 3.34 3.34 0 0 1 -.37-1.56 3.2 3.2 0 0 1 1.58-2.9 6.92 6.92 0 0 1 3.67-.91 8.92 8.92 0 0 1 2.21.26 14.75 14.75 0 0 1 2.45.92 1.74 1.74 0 0 0 .59.2.73.73 0 0 0 .42-.23l.25.13z" fill="#231f20"/><path d="m106 39.48a3.91 3.91 0 0 0 -2.91 1.14 4 4 0 0 0 0 5.37 4.26 4.26 0 0 0 5.83 0 3.61 3.61 0 0 0 1-2.63 3.71 3.71 0 0 0 -1-2.74 4 4 0 0 0 -2.92-1.14zm0-2.19a7.34 7.34 0 0 1 4.59 1.4 5.61 5.61 0 0 1 2.2 4.71 5.42 5.42 0 0 1 -2.2 4.53 8.15 8.15 0 0 1 -9.14 0 5.5 5.5 0 0 1 -2.21-4.62 5.45 5.45 0 0 1 2.21-4.62 7.51 7.51 0 0 1 4.55-1.39z" fill="#231f20"/><path d="m125.8 44.95 1.74 2.55-.24.18a.77.77 0 0 0 -.39-.18 2.47 2.47 0 0 0 -.81.38 11.64 11.64 0 0 1 -2.49 1.12 8.84 8.84 0 0 1 -2.5.32 7.43 7.43 0 0 1 -4.61-1.32 5.66 5.66 0 0 1 -1.61-1.94 5.94 5.94 0 0 1 -.64-2.73 5.79 5.79 0 0 1 1.18-3.59 6.65 6.65 0 0 1 5.66-2.43 9 9 0 0 1 2.51.32 11.33 11.33 0 0 1 2.5 1.14 2.47 2.47 0 0 0 .81.38.77.77 0 0 0 .39-.18l.24.19-1.74 2.53-.23-.16a1.06 1.06 0 0 1 0-.15 1.28 1.28 0 0 0 0-.13q0-.5-1.39-1.14a6.33 6.33 0 0 0 -2.66-.61 4.75 4.75 0 0 0 -3.09 1 3.62 3.62 0 0 0 0 5.71 4.81 4.81 0 0 0 3.09 1 6.43 6.43 0 0 0 2.92-.73q1.13-.58 1.13-1s0-.11 0-.29l.23-.18z" fill="#231f20"/><path d="m132.65 38.6v9.4a.74.74 0 0 0 .14.49 1.09 1.09 0 0 0 .52.28v.29h-4.08v-.26a1 1 0 0 0 .51-.27.74.74 0 0 0 .15-.49v-9.44a.71.71 0 0 0 -.14-.48 1.12 1.12 0 0 0 -.52-.28v-.29h4.08v.29a1 1 0 0 0 -.52.27.74.74 0 0 0 -.14.49z" fill="#231f20"/><path d="m143.26 44.59-1.89-3.71-1.8 3.71zm.83 1.62h-5.31l-.6 1.26a1.8 1.8 0 0 0 -.22.71q0 .49.66.63v.29h-4.24v-.3a1.1 1.1 0 0 0 .58-.24 2.55 2.55 0 0 0 .45-.69l4.22-8.54a2 2 0 0 0 .24-.85q0-.42-.58-.66v-.29h4.49v.29a.75.75 0 0 0 -.57.7 1.89 1.89 0 0 0 .26.84l4.37 8.28a4 4 0 0 0 .57.87 1.22 1.22 0 0 0 .63.28v.29h-4.72v-.28q.67-.11.67-.63a1.75 1.75 0 0 0 -.26-.79l-.64-1.18z" fill="#231f20"/><path d="m156.36 39.64v8.36a.73.73 0 0 0 .14.49 1.09 1.09 0 0 0 .52.28v.29h-4.08v-.26a1 1 0 0 0 .51-.27.74.74 0 0 0 .15-.49v-8.4h-3.4a.74.74 0 0 0 -.5.15 1 1 0 0 0 -.27.51h-.28v-3.42h.28a1 1 0 0 0 .26.51.73.73 0 0 0 .5.15h9.58a.75.75 0 0 0 .5-.14 1 1 0 0 0 .27-.52h.28v3.42h-.28a1 1 0 0 0 -.27-.51.74.74 0 0 0 -.5-.15z" fill="#231f20"/><path d="m165.56 44.18v2.82h7.33a.74.74 0 0 0 .49-.14 1 1 0 0 0 .27-.52h.29v3.41h-.29a1 1 0 0 0 -.27-.51.74.74 0 0 0 -.49-.15h-10.76v-.29a1 1 0 0 0 .51-.27.74.74 0 0 0 .15-.49v-9.44a.71.71 0 0 0 -.14-.48 1.12 1.12 0 0 0 -.52-.28v-.29h10.43a.75.75 0 0 0 .5-.14 1 1 0 0 0 .27-.52h.28v3.41h-.28a1 1 0 0 0 -.27-.52.76.76 0 0 0 -.5-.14h-7v2.54h4.35a.74.74 0 0 0 .49-.14 1.1 1.1 0 0 0 .28-.52h.32v3.33h-.28a1 1 0 0 0 -.27-.51.74.74 0 0 0 -.5-.15z" fill="#231f20"/><path d="m186.78 38.59-1.39 2.69-.25-.13a.69.69 0 0 0 -.22-.54 4.52 4.52 0 0 0 -1.73-.87 8.11 8.11 0 0 0 -2.32-.34 5.22 5.22 0 0 0 -1.77.28q-1.11.4-1.11 1.16a.74.74 0 0 0 .54.72 8.49 8.49 0 0 0 2.07.34l1.63.12a7.64 7.64 0 0 1 3.25.82 3.16 3.16 0 0 1 1.52 2.74 3.16 3.16 0 0 1 -1.59 2.78 7.48 7.48 0 0 1 -4.1 1 12.07 12.07 0 0 1 -5-1.1.73.73 0 0 0 -.28-.07.48.48 0 0 0 -.38.25l-.26-.1 1.19-2.82.26.1v.08a.59.59 0 0 0 .21.45 4.54 4.54 0 0 0 1.78.79 9.79 9.79 0 0 0 2.51.33 6.16 6.16 0 0 0 2-.29q1.07-.35 1.07-1.13a.91.91 0 0 0 -.74-.88 9 9 0 0 0 -1.78-.28l-1.62-.13a13.91 13.91 0 0 1 -2-.27 4 4 0 0 1 -1.21-.48 2.85 2.85 0 0 1 -1-1.12 3.32 3.32 0 0 1 -.37-1.56 3.2 3.2 0 0 1 1.63-2.9 6.92 6.92 0 0 1 3.67-.91 8.93 8.93 0 0 1 2.21.26 14.75 14.75 0 0 1 2.45.92 1.73 1.73 0 0 0 .59.2.73.73 0 0 0 .42-.23l.25.13z" fill="#231f20"/></svg>